<svg width="393" height="739" viewBox="0 0 393 739" fill="none" xmlns="http://www.w3.org/2000/svg">
<path d="M575.863 331.57C575.863 380.469 537.758 424.862 475.872 457.059C414.01 489.244 328.514 509.166 234.051 509.166C139.587 509.166 54.0917 489.244 -7.76993 457.059C-69.6561 424.862 -107.762 380.469 -107.762 331.57C-107.762 282.672 -69.6561 238.279 -7.76993 206.081C54.0917 173.896 139.587 153.975 234.051 153.975C328.514 153.975 414.01 173.896 475.872 206.081C537.758 238.279 575.863 282.672 575.863 331.57Z" stroke="#E6E7EB" stroke-opacity="0.22"/>
<path d="M575.539 317.99C577.875 366.842 541.926 412.707 481.637 447.333C421.371 481.945 336.908 505.244 242.535 508.997C148.161 512.75 61.7948 496.244 -1.54555 466.548C-64.911 436.84 -105.101 394.003 -107.437 345.151C-109.773 296.298 -73.8244 250.434 -13.5352 215.808C46.7301 181.196 131.193 157.896 225.567 154.143C319.94 150.39 406.306 166.896 469.647 196.593C533.012 226.301 573.203 269.137 575.539 317.99Z" stroke="#E6E7EB" stroke-opacity="0.22"/>
<path d="M574.882 307.966C578.942 356.724 544.632 403.621 485.597 440C426.586 476.364 342.99 502.133 248.798 508.656C154.606 515.18 67.7015 501.219 3.34511 473.399C-61.0367 445.567 -102.719 403.934 -106.78 355.175C-110.84 306.416 -76.5295 259.519 -17.4947 223.14C41.5167 186.776 125.113 161.008 219.305 154.484C313.497 147.961 400.401 161.921 464.757 189.742C529.139 217.573 570.822 259.207 574.882 307.966Z" stroke="#E6E7EB" stroke-opacity="0.22"/>
<path d="M569.26 318.347C573.32 367.106 539.01 414.002 479.975 450.381C420.964 486.745 337.368 512.514 243.176 519.037C148.983 525.561 62.0792 511.6 -2.27721 483.78C-66.659 455.948 -108.342 414.315 -112.402 365.556C-116.462 316.797 -82.1518 269.9 -23.117 233.522C35.8944 197.157 119.49 171.389 213.682 164.865C307.874 158.342 394.779 172.302 459.135 200.123C523.517 227.954 565.2 269.588 569.26 318.347Z" stroke="#E6E7EB" stroke-opacity="0.22"/>
<path d="M563.638 328.728C567.698 377.487 533.388 424.383 474.353 460.762C415.341 497.127 331.746 522.895 237.553 529.418C143.361 535.942 56.4571 521.981 -7.89928 494.161C-72.281 466.33 -113.964 424.696 -118.024 375.937C-122.084 327.178 -87.7739 280.281 -28.7391 243.903C30.2724 207.538 113.868 181.77 208.06 175.246C302.252 168.723 389.157 182.683 453.513 210.504C517.895 238.335 559.577 279.969 563.638 328.728Z" stroke="#E6E7EB" stroke-opacity="0.22"/>
<path d="M558.015 339.109C562.076 387.868 527.765 434.764 468.731 471.143C409.719 507.508 326.123 533.276 231.931 539.8C137.739 546.323 50.8348 532.363 -13.5216 504.542C-77.9034 476.711 -119.586 435.077 -123.646 386.318C-127.707 337.559 -93.3962 290.663 -34.3614 254.284C24.65 217.919 108.246 192.151 202.438 185.627C296.63 179.104 383.534 193.064 447.891 220.885C512.273 248.716 553.955 290.35 558.015 339.109Z" stroke="#E6E7EB" stroke-opacity="0.22"/>
<path d="M552.394 349.49C556.454 398.249 522.144 445.146 463.109 481.524C404.098 517.889 320.502 543.657 226.31 550.181C132.118 556.704 45.2132 542.744 -19.1432 514.923C-83.5249 487.092 -125.208 445.458 -129.268 396.699C-133.328 347.94 -99.0178 301.044 -39.983 264.665C19.0285 228.3 102.624 202.532 196.816 196.009C291.009 189.485 377.913 203.446 442.269 231.266C506.651 259.097 548.334 300.731 552.394 349.49Z" stroke="#E6E7EB" stroke-opacity="0.22"/>
<path d="M546.772 359.871C550.832 408.63 516.522 455.527 457.487 491.905C398.476 528.27 314.88 554.038 220.688 560.562C126.495 567.085 39.5911 553.125 -24.7652 525.304C-89.147 497.473 -130.83 455.839 -134.89 407.08C-138.95 358.322 -104.64 311.425 -45.6051 275.046C13.4064 238.682 97.0024 212.913 191.194 206.39C285.386 199.866 372.291 213.827 436.647 241.647C501.029 269.479 542.712 311.112 546.772 359.871Z" stroke="#E6E7EB" stroke-opacity="0.22"/>
<path d="M541.15 370.252C545.21 419.011 510.899 465.908 451.865 502.287C392.853 538.651 309.257 564.42 215.065 570.943C120.873 577.466 33.9688 563.506 -30.3876 535.685C-94.7693 507.854 -136.452 466.22 -140.512 417.461C-144.573 368.703 -110.262 321.806 -51.2274 285.427C7.78408 249.063 91.3801 223.294 185.572 216.771C279.764 210.247 366.668 224.208 431.025 252.028C495.407 279.86 537.089 321.493 541.15 370.252Z" stroke="#E6E7EB" stroke-opacity="0.22"/>
<path d="M535.528 380.633C539.588 429.392 505.278 476.289 446.243 512.667C387.232 549.032 303.636 574.8 209.444 581.324C115.252 587.847 28.3475 573.887 -36.0089 546.066C-100.391 518.235 -142.073 476.601 -146.134 427.842C-150.194 379.083 -115.884 332.187 -56.8487 295.808C2.16274 259.444 85.7587 233.675 179.951 227.152C274.143 220.628 361.047 234.589 425.403 262.409C489.785 290.241 531.468 331.874 535.528 380.633Z" stroke="#E6E7EB" stroke-opacity="0.22"/>
<path d="M529.906 391.014C533.966 439.773 499.656 486.67 440.621 523.049C381.61 559.413 298.014 585.181 203.822 591.705C109.629 598.228 22.7252 584.268 -41.6312 556.447C-106.013 528.616 -147.696 486.982 -151.756 438.223C-155.816 389.465 -121.506 342.568 -62.471 306.189C-3.45957 269.825 80.1364 244.056 174.328 237.533C268.52 231.009 355.425 244.97 419.781 272.79C484.163 300.622 525.846 342.255 529.906 391.014Z" stroke="#E6E7EB" stroke-opacity="0.22"/>
<path d="M524.284 401.395C528.344 450.154 494.033 497.051 434.999 533.43C375.987 569.794 292.391 595.563 198.199 602.086C104.007 608.609 17.1028 594.649 -47.2535 566.828C-111.635 538.997 -153.318 497.363 -157.378 448.604C-161.439 399.846 -127.128 352.949 -68.0934 316.57C-9.08189 280.206 74.5141 254.437 168.706 247.914C262.898 241.39 349.802 255.351 414.159 283.171C478.541 311.003 520.223 352.637 524.284 401.395Z" stroke="#E6E7EB" stroke-opacity="0.22"/>
<path d="M518.661 411.776C522.722 460.535 488.411 507.432 429.377 543.81C370.365 580.175 286.769 605.943 192.577 612.467C98.3851 618.99 11.4808 605.03 -52.8756 577.209C-117.257 549.378 -158.94 507.744 -163 458.985C-167.061 410.227 -132.75 363.33 -73.7154 326.951C-14.704 290.587 68.892 264.818 163.084 258.295C257.276 251.771 344.18 265.732 408.537 293.552C472.919 321.384 514.601 363.017 518.661 411.776Z" stroke="#E6E7EB" stroke-opacity="0.22"/>
<path d="M513.04 422.157C517.1 470.916 482.79 517.813 423.755 554.192C364.744 590.556 281.148 616.325 186.956 622.848C92.7635 629.371 5.85919 615.411 -58.4972 587.59C-122.879 559.759 -164.562 518.125 -168.622 469.366C-172.682 420.608 -138.372 373.711 -79.337 337.332C-20.3255 300.968 63.2704 275.199 157.462 268.676C251.655 262.152 338.559 276.113 402.915 303.933C467.297 331.765 508.98 373.398 513.04 422.157Z" stroke="#E6E7EB" stroke-opacity="0.22"/>
<path d="M507.418 432.538C511.478 481.297 477.168 528.194 418.133 564.573C359.122 600.937 275.526 626.706 181.333 633.229C87.1415 639.752 0.237117 625.792 -64.1192 597.972C-128.501 570.14 -170.184 528.506 -174.244 479.748C-178.304 430.989 -143.994 384.092 -84.9591 347.713C-25.9476 311.349 57.6484 285.58 151.84 279.057C246.032 272.534 332.937 286.494 397.293 314.314C461.675 342.146 503.358 383.78 507.418 432.538Z" stroke="#E6E7EB" stroke-opacity="0.22"/>
<path d="M501.796 442.919C505.856 491.678 471.545 538.575 412.511 574.954C353.499 611.318 269.903 637.087 175.711 643.61C81.5191 650.133 -5.3852 636.173 -69.7416 608.353C-134.123 580.521 -175.806 538.887 -179.866 490.129C-183.927 441.37 -149.616 394.473 -90.5814 358.094C-31.5699 321.73 52.0261 295.961 146.218 289.438C240.41 282.915 327.314 296.875 391.671 324.695C456.053 352.527 497.735 394.161 501.796 442.919Z" stroke="#E6E7EB" stroke-opacity="0.22"/>
<path d="M496.174 453.301C500.234 502.059 465.924 548.956 406.889 585.335C347.878 621.699 264.282 647.468 170.09 653.991C75.8976 660.515 -11.0068 646.554 -75.3631 618.734C-139.745 590.902 -181.428 549.269 -185.488 500.51C-189.548 451.751 -155.238 404.854 -96.203 368.475C-37.1915 332.111 46.4045 306.342 140.597 299.819C234.789 293.296 321.693 307.256 386.049 335.077C450.431 362.908 492.114 404.542 496.174 453.301Z" stroke="#E6E7EB" stroke-opacity="0.22"/>
<path d="M490.552 463.682C494.612 512.44 460.302 559.337 401.267 595.716C342.256 632.08 258.66 657.849 164.468 664.372C70.2755 670.896 -16.6288 656.935 -80.9852 629.115C-145.367 601.283 -187.05 559.65 -191.11 510.891C-195.17 462.132 -160.86 415.235 -101.825 378.857C-42.8136 342.492 40.7824 316.724 134.974 310.2C229.166 303.677 316.071 317.637 380.427 345.458C444.809 373.289 486.492 414.923 490.552 463.682Z" stroke="#E6E7EB" stroke-opacity="0.22"/>
<path d="M484.93 474.063C488.99 522.822 454.679 569.718 395.645 606.097C336.633 642.462 253.037 668.23 158.845 674.753C64.6532 681.277 -22.2512 667.316 -86.6075 639.496C-150.989 611.665 -192.672 570.031 -196.732 521.272C-200.793 472.513 -166.482 425.616 -107.447 389.238C-48.4359 352.873 35.1601 327.105 129.352 320.581C223.544 314.058 310.448 328.018 374.805 355.839C439.187 383.67 480.869 425.304 484.93 474.063Z" stroke="#E6E7EB" stroke-opacity="0.22"/>
<path d="M479.307 484.444C483.368 533.203 449.057 580.099 390.023 616.478C331.011 652.843 247.415 678.611 153.223 685.135C59.0311 691.658 -27.8732 677.698 -92.2296 649.877C-156.611 622.046 -198.294 580.412 -202.354 531.653C-206.415 482.894 -172.104 435.998 -113.069 399.619C-54.058 363.254 29.538 337.486 123.73 330.962C217.922 324.439 304.826 338.399 369.183 366.22C433.565 394.051 475.247 435.685 479.307 484.444Z" stroke="#E6E7EB" stroke-opacity="0.22"/>
<path d="M473.647 494.726C477.699 543.486 443.381 590.389 384.341 626.777C325.325 663.151 241.726 688.933 147.535 695.47C53.3439 702.008 -33.556 688.06 -97.9061 660.248C-162.281 632.425 -203.956 590.796 -208.007 542.037C-212.059 493.277 -177.741 446.374 -118.701 409.986C-59.6848 373.612 23.9138 347.83 118.105 341.293C212.296 334.755 299.196 348.703 363.546 376.515C427.921 404.338 469.596 445.967 473.647 494.726Z" stroke="#E6E7EB" stroke-opacity="0.22"/>
<path d="M-66.1591 616.256C-75.9494 602.372 -77.3481 584.426 -71.3817 563.789C-65.4155 543.152 -52.0987 519.882 -32.5587 495.427C6.51907 446.52 70.4192 392.957 149.886 346.351C229.353 299.744 309.303 268.94 374.31 256.802C406.816 250.733 435.557 249.336 458.622 252.946C481.688 256.556 499.013 265.162 508.804 279.045C518.594 292.928 519.993 310.874 514.026 331.512C508.06 352.148 494.743 375.418 475.203 399.873C436.126 448.78 372.225 502.343 292.758 548.95C213.291 595.556 133.342 626.36 68.3347 638.498C35.8291 644.568 7.08761 645.965 -15.9774 642.354C-39.0434 638.744 -56.3687 630.139 -66.1591 616.256Z" stroke="#E6E7EB" stroke-opacity="0.22"/>
<path d="M-60.4172 623.851C-71.1755 610.553 -73.6583 592.957 -68.8266 572.447C-63.9952 551.939 -51.8607 528.575 -33.481 503.821C3.27601 454.315 64.9465 399.333 142.826 350.626C220.706 301.92 300.012 268.736 365.261 254.447C397.887 247.302 426.97 244.888 450.59 247.603C474.211 250.318 492.303 258.152 503.061 271.45C513.82 284.748 516.302 302.344 511.471 322.853C506.639 343.362 494.505 366.725 476.125 391.48C439.368 440.985 377.698 495.968 299.818 544.674C221.938 593.38 142.632 626.565 77.3835 640.854C44.7571 647.999 15.6736 650.413 -7.94633 647.698C-31.5672 644.983 -49.659 637.148 -60.4172 623.851Z" stroke="#E6E7EB" stroke-opacity="0.22"/>
<path d="M-55.8278 629.251C-67.2891 616.402 -70.5703 599.085 -66.5836 578.696C-62.5971 558.307 -51.3515 534.903 -33.8523 509.957C1.14393 460.069 61.0904 404.105 137.701 353.906C214.312 303.707 293.045 268.803 358.393 252.941C391.069 245.01 420.369 241.846 444.371 243.896C468.373 245.946 487.01 253.201 498.471 266.05C509.932 278.899 513.214 296.216 509.227 316.605C505.24 336.993 493.995 360.398 476.496 385.343C441.499 435.231 381.553 491.196 304.942 541.395C228.331 591.594 149.598 626.498 84.2505 642.36C51.5747 650.291 22.2739 653.454 -1.72742 651.405C-25.7296 649.355 -44.3665 642.1 -55.8278 629.251Z" stroke="#E6E7EB" stroke-opacity="0.22"/>
<path d="M-55.2792 620.549C-66.7405 607.7 -70.0217 590.383 -66.035 569.994C-62.0486 549.605 -50.8029 526.201 -33.3037 501.255C1.69251 451.368 61.639 395.403 138.25 345.204C214.861 295.005 293.594 260.101 358.941 244.239C391.617 236.308 420.918 233.144 444.919 235.194C468.921 237.244 487.558 244.499 499.02 257.348C510.481 270.197 513.762 287.514 509.775 307.903C505.789 328.291 494.543 351.696 477.044 376.641C442.048 426.529 382.101 482.494 305.49 532.693C228.879 582.892 150.147 617.796 84.7991 633.658C52.1233 641.589 22.8225 644.752 -1.17883 642.703C-25.181 640.653 -43.8179 633.398 -55.2792 620.549Z" stroke="#E6E7EB" stroke-opacity="0.22"/>
<path d="M-54.7309 611.847C-66.1922 598.998 -69.4733 581.681 -65.4867 561.292C-61.5002 540.904 -50.2545 517.499 -32.7554 492.554C2.24085 442.666 62.1874 386.701 138.798 336.502C215.409 286.303 294.142 251.399 359.49 235.537C392.165 227.606 421.466 224.443 445.468 226.492C469.47 228.542 488.107 235.797 499.568 248.646C511.029 261.495 514.31 278.812 510.324 299.201C506.337 319.59 495.092 342.994 477.592 367.94C442.596 417.828 382.65 473.792 306.039 523.991C229.428 574.19 150.695 609.094 85.3474 624.956C52.6717 632.887 23.3708 636.051 -0.630493 634.001C-24.6327 631.951 -43.2696 624.696 -54.7309 611.847Z" stroke="#E6E7EB" stroke-opacity="0.22"/>
<path d="M-54.1833 603.145C-65.6446 590.296 -68.9257 572.98 -64.9391 552.59C-60.9526 532.202 -49.7069 508.797 -32.2078 483.852C2.78846 433.964 62.735 377.999 139.346 327.8C215.957 277.601 294.69 242.697 360.037 226.836C392.713 218.904 422.014 215.741 446.015 217.791C470.017 219.84 488.654 227.095 500.116 239.944C511.577 252.793 514.858 270.11 510.871 290.499C506.885 310.888 495.639 334.292 478.14 359.238C443.144 409.126 383.197 465.091 306.586 515.29C229.975 565.488 151.242 600.392 85.895 616.254C53.2193 624.185 23.9184 627.349 -0.0828858 625.299C-24.085 623.249 -42.722 615.994 -54.1833 603.145Z" stroke="#E6E7EB" stroke-opacity="0.22"/>
<path d="M-53.6354 594.444C-65.0967 581.595 -68.3779 564.278 -64.3912 543.889C-60.4048 523.5 -49.1591 500.096 -31.6599 475.15C3.33631 425.262 63.2828 369.297 139.894 319.099C216.505 268.9 295.238 233.996 360.585 218.134C393.261 210.203 422.562 207.039 446.563 209.089C470.565 211.139 489.202 218.394 500.663 231.243C512.125 244.092 515.406 261.408 511.419 281.798C507.433 302.186 496.187 325.591 478.688 350.536C443.692 400.424 383.745 456.389 307.134 506.588C230.523 556.787 151.79 591.691 86.4429 607.552C53.7671 615.484 24.4663 618.647 0.464966 616.597C-23.5372 614.548 -42.1741 607.293 -53.6354 594.444Z" stroke="#E6E7EB" stroke-opacity="0.22"/>
<path d="M-53.0871 585.742C-64.5484 572.893 -67.8295 555.576 -63.8429 535.187C-59.8564 514.798 -48.6107 491.394 -31.1116 466.448C3.88465 416.56 63.8312 360.596 140.442 310.397C217.053 260.198 295.786 225.294 361.133 209.432C393.809 201.501 423.11 198.337 447.111 200.387C471.114 202.437 489.75 209.692 501.212 222.541C512.673 235.39 515.954 252.707 511.968 273.096C507.981 293.484 496.735 316.889 479.236 341.834C444.24 391.722 384.294 447.687 307.683 497.886C231.072 548.085 152.339 582.989 86.9912 598.851C54.3155 606.782 25.0146 609.945 1.01331 607.896C-22.9889 605.846 -41.6258 598.591 -53.0871 585.742Z" stroke="#E6E7EB" stroke-opacity="0.22"/>
<path d="M-52.5407 577.04C-64.002 564.191 -67.2831 546.874 -63.2965 526.485C-59.31 506.097 -48.0643 482.692 -30.5652 457.747C4.43104 407.859 64.3776 351.894 140.989 301.695C217.6 251.496 296.332 216.592 361.68 200.73C394.356 192.799 423.656 189.636 447.658 191.685C471.66 193.735 490.297 200.99 501.758 213.839C513.219 226.688 516.501 244.005 512.514 264.394C508.527 284.783 497.282 308.187 479.783 333.133C444.786 383.02 384.84 438.985 308.229 489.184C231.618 539.383 152.885 574.287 87.5376 590.149C54.8619 598.08 25.561 601.244 1.55969 599.194C-22.4425 597.144 -41.0794 589.889 -52.5407 577.04Z" stroke="#E6E7EB" stroke-opacity="0.22"/>
<path d="M-51.9924 568.339C-63.4537 555.49 -66.7348 538.173 -62.7482 517.784C-58.7617 497.395 -47.516 473.991 -30.0168 449.045C4.97938 399.158 64.9259 343.193 141.537 292.994C218.148 242.795 296.881 207.891 362.228 192.029C394.904 184.098 424.205 180.934 448.206 182.984C472.208 185.034 490.845 192.289 502.307 205.138C513.768 217.987 517.049 235.304 513.062 255.693C509.076 276.081 497.83 299.486 480.331 324.431C445.335 374.319 385.388 430.284 308.777 480.483C232.166 530.682 153.433 565.586 88.0859 581.448C55.4102 589.379 26.1093 592.542 2.10803 590.493C-21.8941 588.443 -40.5311 581.188 -51.9924 568.339Z" stroke="#E6E7EB" stroke-opacity="0.22"/>
<path d="M-51.4445 559.637C-62.9058 546.788 -66.187 529.471 -62.2003 509.082C-58.2138 488.693 -46.9682 465.289 -29.469 440.343C5.52723 390.455 65.4737 334.491 142.085 284.292C218.696 234.093 297.429 199.189 362.776 183.327C395.452 175.396 424.753 172.232 448.754 174.282C472.756 176.332 491.393 183.587 502.854 196.436C514.316 209.285 517.597 226.602 513.61 246.991C509.624 267.379 498.378 290.784 480.879 315.729C445.883 365.617 385.936 421.582 309.325 471.781C232.714 521.98 153.981 556.884 88.6338 572.746C55.958 580.677 26.6572 583.84 2.65588 581.791C-21.3463 579.741 -39.9832 572.486 -51.4445 559.637Z" stroke="#E6E7EB" stroke-opacity="0.22"/>
<path d="M-50.8969 550.935C-62.3582 538.086 -65.6393 520.769 -61.6527 500.38C-57.6662 479.991 -46.4205 456.587 -28.9214 431.641C6.07484 381.754 66.0214 325.789 142.632 275.59C219.243 225.391 297.976 190.487 363.324 174.625C395.999 166.694 425.3 163.53 449.302 165.58C473.304 167.63 491.941 174.885 503.402 187.734C514.863 200.583 518.144 217.9 514.158 238.289C510.171 258.677 498.926 282.082 481.426 307.027C446.43 356.915 386.484 412.88 309.873 463.079C233.262 513.278 154.529 548.182 89.1814 564.044C56.5057 571.975 27.2048 575.138 3.20349 573.089C-20.7987 571.039 -39.4356 563.784 -50.8969 550.935Z" stroke="#E6E7EB" stroke-opacity="0.22"/>
<path d="M-50.3486 542.234C-61.8099 529.385 -65.091 512.068 -61.1044 491.679C-57.1179 471.29 -45.8722 447.885 -28.373 422.94C6.62318 373.052 66.5697 317.087 143.181 266.888C219.792 216.689 298.525 181.785 363.872 165.924C396.548 157.992 425.849 154.829 449.85 156.879C473.852 158.928 492.489 166.183 503.95 179.032C515.412 191.881 518.693 209.198 514.706 229.587C510.72 249.976 499.474 273.38 481.975 298.326C446.979 348.214 387.032 404.179 310.421 454.378C233.81 504.577 155.077 539.48 89.7297 555.342C57.054 563.274 27.7531 566.437 3.75183 564.387C-20.2503 562.338 -38.8873 555.083 -50.3486 542.234Z" stroke="#E6E7EB" stroke-opacity="0.22"/>
<path d="M-49.8002 533.531C-61.2615 520.682 -64.5427 503.366 -60.556 482.976C-56.5696 462.588 -45.3239 439.183 -27.8247 414.238C7.17152 364.35 67.118 308.385 143.729 258.186C220.34 207.987 299.073 173.083 364.42 157.222C397.096 149.29 426.397 146.127 450.398 148.177C474.4 150.226 493.037 157.481 504.499 170.33C515.96 183.179 519.241 200.496 515.254 220.885C511.268 241.274 500.022 264.678 482.523 289.624C447.527 339.512 387.58 395.477 310.969 445.675C234.358 495.874 155.626 530.778 90.2781 546.64C57.6023 554.571 28.3015 557.735 4.30017 555.685C-19.702 553.635 -38.3389 546.38 -49.8002 533.531Z" stroke="#E6E7EB" stroke-opacity="0.22"/>
<path d="M-49.2531 524.829C-60.7144 511.98 -63.9955 494.664 -60.0089 474.274C-56.0224 453.886 -44.7767 430.481 -27.2776 405.536C7.71864 355.648 67.6651 299.683 144.276 249.484C220.887 199.285 299.62 164.381 364.967 148.52C397.643 140.588 426.944 137.425 450.945 139.475C474.948 141.524 493.584 148.779 505.046 161.628C516.507 174.477 519.788 191.794 515.802 212.183C511.815 232.572 500.569 255.976 483.07 280.922C448.074 330.81 388.128 386.775 311.517 436.974C234.906 487.172 156.173 522.076 90.8252 537.938C58.1495 545.87 28.8486 549.033 4.84729 546.983C-19.1549 544.934 -37.7918 537.678 -49.2531 524.829Z" stroke="#E6E7EB" stroke-opacity="0.22"/>
<path d="M-48.706 516.128C-60.1673 503.279 -63.4484 485.962 -59.4618 465.573C-55.4753 445.184 -44.2296 421.78 -26.7305 396.834C8.26576 346.946 68.2123 290.982 144.823 240.783C221.434 190.584 300.167 155.68 365.515 139.818C398.19 131.887 427.491 128.723 451.492 130.773C475.495 132.823 494.132 140.078 505.593 152.927C517.054 165.776 520.335 183.093 516.349 203.482C512.362 223.87 501.117 247.275 483.617 272.22C448.621 322.108 388.675 378.073 312.064 428.272C235.453 478.471 156.72 513.375 91.3723 529.237C58.6966 537.168 29.3957 540.331 5.39441 538.282C-18.6077 536.232 -37.2447 528.977 -48.706 516.128Z" stroke="#E6E7EB" stroke-opacity="0.22"/>
<path d="M-48.1576 507.426C-59.6189 494.577 -62.9001 477.261 -58.9135 456.871C-54.927 436.483 -43.6813 413.078 -26.1821 388.133C8.8141 338.245 68.7606 282.28 145.372 232.081C221.983 181.882 300.715 146.978 366.063 131.117C398.739 123.185 428.04 120.022 452.041 122.072C476.043 124.121 494.68 131.376 506.141 144.225C517.603 157.074 520.884 174.391 516.897 194.78C512.911 215.169 501.665 238.573 484.166 263.519C449.17 313.407 389.223 369.372 312.612 419.571C236.001 469.769 157.268 504.673 91.9207 520.535C59.2449 528.466 29.944 531.63 5.94275 529.58C-18.0594 527.53 -36.6963 520.275 -48.1576 507.426Z" stroke="#E6E7EB" stroke-opacity="0.22"/>
<path d="M-47.6098 498.725C-59.0711 485.876 -62.3522 468.559 -58.3656 448.17C-54.3791 427.781 -43.1334 404.377 -25.6343 379.431C9.36195 329.543 69.3085 273.578 145.919 223.38C222.53 173.181 301.263 138.277 366.611 122.415C399.287 114.484 428.587 111.32 452.589 113.37C476.591 115.42 495.228 122.675 506.689 135.524C518.15 148.373 521.432 165.689 517.445 186.079C513.458 206.467 502.213 229.872 484.714 254.817C449.717 304.705 389.771 360.67 313.16 410.869C236.549 461.068 157.816 495.972 92.4685 511.833C59.7928 519.765 30.4919 522.928 6.4906 520.879C-17.5116 518.829 -36.1485 511.574 -47.6098 498.725Z" stroke="#E6E7EB" stroke-opacity="0.22"/>
<path d="M-47.0622 490.022C-58.5235 477.173 -61.8046 459.857 -57.818 439.467C-53.8315 419.079 -42.5858 395.674 -25.0867 370.729C9.90956 320.841 69.8561 264.876 146.467 214.677C223.078 164.478 301.811 129.574 367.158 113.712C399.834 105.781 429.135 102.618 453.136 104.667C477.138 106.717 495.775 113.972 507.237 126.821C518.698 139.67 521.979 156.987 517.993 177.376C514.006 197.765 502.76 221.169 485.261 246.115C450.265 296.003 390.318 351.968 313.707 402.166C237.096 452.365 158.364 487.269 93.0161 503.131C60.3404 511.062 31.0395 514.226 7.03821 512.176C-16.964 510.126 -35.6009 502.871 -47.0622 490.022Z" stroke="#E6E7EB" stroke-opacity="0.22"/>
<path d="M-46.5138 481.321C-57.9751 468.472 -61.2563 451.155 -57.2697 430.766C-53.2832 410.377 -42.0375 386.973 -24.5383 362.027C10.4579 312.14 70.4044 256.175 147.015 205.976C223.626 155.777 302.359 120.873 367.707 105.011C400.382 97.0797 429.683 93.9164 453.685 95.9661C477.687 98.0158 496.324 105.271 507.785 118.12C519.246 130.969 522.527 148.286 518.541 168.675C514.554 189.063 503.309 212.468 485.81 237.413C450.813 287.301 390.867 343.266 314.256 393.465C237.645 443.664 158.912 478.568 93.5645 494.43C60.8887 502.361 31.5878 505.524 7.58655 503.475C-16.4156 501.425 -35.0525 494.17 -46.5138 481.321Z" stroke="#E6E7EB" stroke-opacity="0.22"/>
<path d="M-45.966 472.619C-57.4273 459.77 -60.7084 442.453 -56.7218 422.064C-52.7353 401.676 -41.4896 378.271 -23.9905 353.326C11.0057 303.438 70.9523 247.473 147.563 197.274C224.174 147.075 302.907 112.171 368.255 96.3094C400.93 88.3781 430.231 85.2147 454.232 87.2644C478.235 89.3141 496.872 96.5692 508.333 109.418C519.794 122.267 523.075 139.584 519.089 159.973C515.102 180.362 503.857 203.766 486.357 228.712C451.361 278.6 391.415 334.564 314.804 384.763C238.193 434.962 159.46 469.866 94.1123 485.728C61.4366 493.659 32.1357 496.823 8.1344 494.773C-15.8678 492.723 -34.5047 485.468 -45.966 472.619Z" stroke="#E6E7EB" stroke-opacity="0.22"/>
</svg>
