<svg width="310" height="483" viewBox="0 0 310 483" fill="none" xmlns="http://www.w3.org/2000/svg">
<path d="M384.409 170.306C384.409 198.967 362.075 224.986 325.803 243.857C289.545 262.721 239.435 274.397 184.069 274.397C128.703 274.397 78.5927 262.721 42.3349 243.857C6.06273 224.986 -16.2714 198.967 -16.2714 170.306C-16.2714 141.646 6.06273 115.627 42.3349 96.7559C78.5927 77.892 128.703 66.2157 184.069 66.2157C239.435 66.2157 289.545 77.892 325.803 96.7559C362.075 115.627 384.409 141.646 384.409 170.306Z" stroke="white" stroke-width="0.586111"/>
<path d="M384.218 162.347C385.587 190.98 364.517 217.862 329.181 238.156C293.859 258.443 244.355 272.099 189.041 274.298C133.728 276.498 83.1074 266.824 45.9829 249.418C8.8437 232.006 -14.7123 206.899 -16.0814 178.266C-17.4506 149.633 3.61944 122.751 38.9556 102.457C74.2778 82.1702 123.782 68.5141 179.096 66.3144C234.409 64.1147 285.029 73.789 322.154 91.1945C359.293 108.607 382.849 133.714 384.218 162.347Z" stroke="white" stroke-width="0.586111"/>
<path d="M383.834 156.472C386.214 185.05 366.104 212.536 331.503 233.858C296.916 255.172 247.919 270.275 192.712 274.099C137.505 277.922 86.5695 269.74 48.8496 253.434C11.1147 237.122 -13.3159 212.719 -15.6957 184.141C-18.0755 155.563 2.03417 128.077 36.6351 106.755C71.2224 85.4411 120.219 70.3378 175.426 66.5144C230.633 62.691 281.569 70.8733 319.288 87.1792C357.023 103.492 381.454 127.894 383.834 156.472Z" stroke="white" stroke-width="0.586111"/>
<path d="M380.538 162.556C382.918 191.134 362.808 218.621 328.208 239.943C293.62 261.256 244.624 276.36 189.417 280.183C134.21 284.006 83.2741 275.824 45.5542 259.518C7.81929 243.206 -16.6113 218.804 -18.9911 190.226C-21.3709 161.648 -1.26124 134.161 33.3397 112.839C67.927 91.5255 116.923 76.4223 172.131 72.5989C227.337 68.7755 278.273 76.9578 315.993 93.2637C353.728 109.576 378.159 133.978 380.538 162.556Z" stroke="white" stroke-width="0.586111"/>
<path d="M377.243 168.64C379.623 197.219 359.513 224.705 324.912 246.027C290.325 267.341 241.329 282.444 186.122 286.267C130.915 290.091 79.979 281.909 42.259 265.603C4.52412 249.29 -19.9065 224.888 -22.2863 196.31C-24.6661 167.732 -4.55641 140.245 30.0445 118.923C64.6318 97.6099 113.628 82.5066 168.835 78.6832C224.042 74.8598 274.978 83.0421 312.698 99.348C350.433 115.66 374.863 140.062 377.243 168.64Z" stroke="white" stroke-width="0.586111"/>
<path d="M373.948 174.725C376.328 203.303 356.218 230.79 321.617 252.112C287.03 273.425 238.033 288.529 182.826 292.352C127.619 296.175 76.6838 287.993 38.9638 271.687C1.22896 255.375 -23.2017 230.973 -25.5815 202.395C-27.9613 173.817 -7.85157 146.33 26.7494 125.008C61.3366 103.694 110.333 88.5912 165.54 84.7678C220.747 80.9444 271.683 89.1267 309.403 105.433C347.138 121.745 371.568 146.147 373.948 174.725Z" stroke="white" stroke-width="0.586111"/>
<path d="M370.653 180.809C373.033 209.388 352.923 236.874 318.322 258.196C283.735 279.51 234.738 294.613 179.531 298.436C124.324 302.26 73.3889 294.078 35.6689 277.772C-2.06597 261.459 -26.4966 237.057 -28.8764 208.479C-31.2562 179.901 -11.1465 152.415 23.4544 131.093C58.0417 109.779 107.038 94.6757 162.245 90.8523C217.452 87.0289 268.388 95.2112 306.108 111.517C343.843 127.829 368.273 152.231 370.653 180.809Z" stroke="white" stroke-width="0.586111"/>
<path d="M367.358 186.894C369.738 215.472 349.628 242.959 315.027 264.281C280.44 285.594 231.443 300.698 176.236 304.521C121.029 308.344 70.0937 300.162 32.3737 283.856C-5.36113 267.544 -29.7918 243.142 -32.1716 214.564C-34.5514 185.986 -14.4417 158.499 20.1593 137.177C54.7466 115.863 103.743 100.76 158.95 96.9368C214.157 93.1134 265.093 101.296 302.813 117.602C340.548 133.914 364.978 158.316 367.358 186.894Z" stroke="white" stroke-width="0.586111"/>
<path d="M364.063 192.978C366.442 221.557 346.333 249.043 311.732 270.365C277.144 291.679 228.148 306.782 172.941 310.605C117.734 314.429 66.7983 306.247 29.0783 289.941C-8.65654 273.628 -33.0872 249.226 -35.467 220.648C-37.8468 192.07 -17.7371 164.583 16.8639 143.261C51.4511 121.948 100.448 106.845 155.655 103.021C210.862 99.1978 261.797 107.38 299.517 123.686C337.252 139.998 361.683 164.4 364.063 192.978Z" stroke="white" stroke-width="0.586111"/>
<path d="M360.768 199.063C363.148 227.641 343.038 255.128 308.437 276.45C273.85 297.763 224.853 312.866 169.646 316.69C114.439 320.513 63.5039 312.331 25.7839 296.025C-11.951 279.713 -36.3816 255.311 -38.7614 226.733C-41.1412 198.155 -21.0315 170.668 13.5694 149.346C48.1567 128.032 97.1532 112.929 152.36 109.106C207.567 105.282 258.503 113.465 296.223 129.77C333.958 146.083 358.388 170.485 360.768 199.063Z" stroke="white" stroke-width="0.586111"/>
<path d="M357.472 205.147C359.852 233.725 339.743 261.212 305.142 282.534C270.554 303.848 221.558 318.951 166.351 322.774C111.144 326.598 60.2082 318.415 22.4882 302.109C-15.2466 285.797 -39.6773 261.395 -42.0571 232.817C-44.4368 204.239 -24.3272 176.752 10.2738 155.43C44.8611 134.117 93.8576 119.013 149.065 115.19C204.272 111.367 255.207 119.549 292.927 135.855C330.662 152.167 355.093 176.569 357.472 205.147Z" stroke="white" stroke-width="0.586111"/>
<path d="M354.177 211.232C356.557 239.81 336.447 267.297 301.846 288.619C267.259 309.932 218.263 325.035 163.056 328.859C107.849 332.682 56.913 324.5 19.1931 308.194C-18.5418 291.882 -42.9724 267.48 -45.3522 238.902C-47.732 210.323 -27.6223 182.837 6.97861 161.515C41.5659 140.201 90.5624 125.098 145.769 121.275C200.976 117.451 251.912 125.633 289.632 141.939C327.367 158.252 351.797 182.654 354.177 211.232Z" stroke="white" stroke-width="0.586111"/>
<path d="M350.882 217.316C353.262 245.894 333.152 273.381 298.551 294.703C263.964 316.016 214.967 331.12 159.76 334.943C104.553 338.767 53.6179 330.584 15.8979 314.278C-21.837 297.966 -46.2676 273.564 -48.6474 244.986C-51.0272 216.408 -30.9175 188.921 3.68344 167.599C38.2707 146.286 87.2672 131.182 142.474 127.359C197.681 123.535 248.617 131.718 286.337 148.024C324.072 164.336 348.502 188.738 350.882 217.316Z" stroke="white" stroke-width="0.586111"/>
<path d="M347.587 223.401C349.967 251.979 329.857 279.465 295.256 300.787C260.669 322.101 211.673 337.204 156.466 341.028C101.259 344.851 50.323 336.669 12.603 320.363C-25.1319 304.05 -49.5625 279.648 -51.9423 251.07C-54.3221 222.492 -34.2124 195.006 0.388521 173.684C34.9758 152.37 83.9723 137.267 139.179 133.443C194.386 129.62 245.322 137.802 283.042 154.108C320.777 170.42 345.207 194.822 347.587 223.401Z" stroke="white" stroke-width="0.586111"/>
<path d="M344.292 229.485C346.672 258.063 326.562 285.55 291.961 306.872C257.374 328.185 208.378 343.289 153.171 347.112C97.9636 350.935 47.028 342.753 9.30806 326.447C-28.4268 310.135 -52.8574 285.733 -55.2372 257.155C-57.617 228.577 -37.5073 201.09 -2.9064 179.768C31.6809 158.454 80.6774 143.351 135.884 139.528C191.091 135.704 242.027 143.887 279.747 160.193C317.482 176.505 341.912 200.907 344.292 229.485Z" stroke="white" stroke-width="0.586111"/>
<path d="M340.997 235.569C343.376 264.148 323.267 291.634 288.666 312.956C254.079 334.27 205.082 349.373 149.875 353.197C94.668 357.02 43.7324 348.838 6.01241 332.532C-31.7225 316.219 -56.1531 291.817 -58.5329 263.239C-60.9127 234.661 -40.803 207.175 -6.20206 185.853C28.3852 164.539 77.3817 149.436 132.589 145.612C187.796 141.789 238.731 149.971 276.451 166.277C314.186 182.589 338.617 206.991 340.997 235.569Z" stroke="white" stroke-width="0.586111"/>
<path d="M337.702 241.654C340.082 270.232 319.972 297.719 285.371 319.041C250.784 340.354 201.787 355.458 146.58 359.281C91.3733 363.104 40.4377 354.922 2.71773 338.616C-35.0171 322.304 -59.4478 297.902 -61.8276 269.324C-64.2074 240.746 -44.0977 213.259 -9.49673 191.937C25.0905 170.623 74.0871 155.52 129.294 151.697C184.501 147.873 235.437 156.056 273.157 172.362C310.892 188.674 335.322 213.076 337.702 241.654Z" stroke="white" stroke-width="0.586111"/>
<path d="M334.407 247.738C336.787 276.317 316.677 303.803 282.076 325.125C247.489 346.439 198.492 361.542 143.285 365.365C88.0781 369.189 37.1425 361.007 -0.577437 344.701C-38.3123 328.388 -62.7429 303.986 -65.1227 275.408C-67.5025 246.83 -47.3928 219.343 -12.7919 198.021C21.7954 176.708 70.7919 161.605 125.999 157.781C181.206 153.958 232.142 162.14 269.861 178.446C307.596 194.758 332.027 219.16 334.407 247.738Z" stroke="white" stroke-width="0.586111"/>
<path d="M331.111 253.823C333.491 282.401 313.381 309.888 278.781 331.21C244.193 352.523 195.197 367.627 139.99 371.45C84.7827 375.273 33.8471 367.091 -3.87285 350.785C-41.6077 334.473 -66.0384 310.071 -68.4181 281.493C-70.7979 252.915 -50.6882 225.428 -16.0873 204.106C18.5 182.792 67.4965 167.689 122.704 163.866C177.91 160.042 228.846 168.225 266.566 184.531C304.301 200.843 328.732 225.245 331.111 253.823Z" stroke="white" stroke-width="0.586111"/>
<path d="M327.816 259.907C330.196 288.485 310.087 315.972 275.486 337.294C240.898 358.608 191.902 373.711 136.695 377.534C81.4878 381.358 30.5522 373.175 -7.16777 356.87C-44.9026 340.557 -69.3333 316.155 -71.7131 287.577C-74.0929 258.999 -53.9832 231.512 -19.3822 210.19C15.2051 188.877 64.2016 173.774 119.409 169.95C174.616 166.127 225.551 174.309 263.271 190.615C301.006 206.927 325.437 231.329 327.816 259.907Z" stroke="white" stroke-width="0.586111"/>
<path d="M324.499 265.934C326.874 294.513 306.76 322.003 272.156 343.331C237.565 364.65 188.567 379.761 133.361 383.592C78.1544 387.424 27.2214 379.249 -10.4949 362.948C-48.226 346.641 -72.6518 322.242 -75.0265 293.663C-77.4012 265.085 -57.2871 237.594 -22.6832 216.267C11.907 194.947 60.9051 179.837 116.112 176.005C171.318 172.173 222.251 180.348 259.967 196.649C297.698 212.956 322.124 237.356 324.499 265.934Z" stroke="white" stroke-width="0.586111"/>
<path d="M145.756 441.678C115.619 433.422 94.7235 406.408 85.3456 369.316C75.9689 332.229 78.1232 285.115 94.049 236.769C109.975 188.422 136.648 148.025 166.883 121.791C197.123 95.5528 230.883 83.5122 261.02 91.7685C291.156 100.025 312.052 127.039 321.43 164.131C330.807 201.217 328.652 248.332 312.726 296.678C296.801 345.024 270.128 385.421 239.892 411.656C209.653 437.894 175.892 449.934 145.756 441.678Z" stroke="white" stroke-width="0.586111"/>
<path d="M154.168 443.802C123.666 436.751 101.5 410.592 90.3589 373.908C79.2195 337.23 79.121 290.074 92.722 241.141C106.323 192.208 131.041 150.789 159.994 123.379C188.952 95.9641 222.105 82.5937 252.607 89.6448C283.11 96.6958 305.276 122.854 316.417 159.538C327.556 196.217 327.655 243.372 314.054 292.305C300.453 341.238 275.735 382.657 246.782 410.068C217.824 437.482 184.671 450.853 154.168 443.802Z" stroke="white" stroke-width="0.586111"/>
<path d="M160.449 445.156C129.713 439.004 106.635 413.511 94.2036 377.173C81.7744 340.841 80.0104 293.713 91.8761 244.405C103.742 195.098 126.984 152.975 154.954 124.728C182.928 96.4768 215.592 82.1395 246.327 88.2908C277.063 94.4422 300.142 119.936 312.572 156.273C325.002 192.606 326.766 239.734 314.9 289.041C303.034 338.349 279.792 380.472 251.822 408.719C223.848 436.97 191.184 451.307 160.449 445.156Z" stroke="white" stroke-width="0.586111"/>
<path d="M155.007 440.527C124.272 434.376 101.193 408.882 88.7622 372.545C76.333 336.212 74.569 289.084 86.4347 239.777C98.3003 190.47 121.543 148.346 149.513 120.099C177.487 91.8482 210.151 77.5109 240.886 83.6623C271.621 89.8137 294.7 115.307 307.131 151.645C319.56 187.977 321.324 235.106 309.459 284.413C297.593 333.72 274.351 375.843 246.381 404.09C218.407 432.341 185.743 446.679 155.007 440.527Z" stroke="white" stroke-width="0.586111"/>
<path d="M149.565 435.899C118.83 429.747 95.7512 404.254 83.3203 367.916C70.8911 331.584 69.1271 284.456 80.9928 235.148C92.8584 185.841 116.101 143.718 144.071 115.471C172.045 87.2197 204.709 72.8824 235.444 79.0338C266.179 85.1851 289.258 110.679 301.689 147.016C314.118 183.349 315.882 230.477 304.017 279.784C292.151 329.092 268.909 371.215 240.939 399.462C212.965 427.713 180.301 442.05 149.565 435.899Z" stroke="white" stroke-width="0.586111"/>
<path d="M144.124 431.27C113.388 425.119 90.3096 399.625 77.8786 363.288C65.4495 326.955 63.6854 279.827 75.5511 230.52C87.4168 181.212 110.659 139.089 138.629 110.842C166.603 82.5912 199.267 68.2539 230.002 74.4052C260.738 80.5566 283.817 106.05 296.247 142.388C308.677 178.72 310.441 225.848 298.575 275.156C286.709 324.463 263.467 366.586 235.497 394.833C207.523 423.084 174.859 437.422 144.124 431.27Z" stroke="white" stroke-width="0.586111"/>
<path d="M138.682 426.642C107.946 420.49 84.8674 394.997 72.4365 358.659C60.0073 322.327 58.2433 275.199 70.109 225.891C81.9747 176.584 105.217 134.461 133.187 106.214C161.161 77.9627 193.825 63.6254 224.56 69.7768C255.296 75.9282 278.374 101.422 290.805 137.759C303.235 174.092 304.999 221.22 293.133 270.527C281.267 319.835 258.025 361.958 230.055 390.205C202.081 418.456 169.417 432.793 138.682 426.642Z" stroke="white" stroke-width="0.586111"/>
<path d="M133.24 422.013C102.505 415.862 79.426 390.368 66.9951 354.03C54.5659 317.698 52.8019 270.57 64.6676 221.263C76.5333 171.955 99.7755 129.832 127.746 101.585C155.72 73.3339 188.384 58.9967 219.119 65.148C249.854 71.2994 272.933 96.793 285.364 133.131C297.793 169.463 299.557 216.591 287.691 265.899C275.826 315.206 252.584 357.329 224.613 385.576C196.639 413.827 163.975 428.164 133.24 422.013Z" stroke="white" stroke-width="0.586111"/>
<path d="M127.798 417.384C97.0631 411.233 73.9844 385.739 61.5534 349.402C49.1243 313.069 47.3602 265.941 59.2259 216.634C71.0916 167.327 94.3338 125.203 122.304 96.9564C150.278 68.7054 182.942 54.3681 213.677 60.5195C244.413 66.6709 267.491 92.1645 279.922 128.502C292.351 164.835 294.116 211.963 282.25 261.27C270.384 310.577 247.142 352.701 219.172 380.948C191.198 409.199 158.534 423.536 127.798 417.384Z" stroke="white" stroke-width="0.586111"/>
<path d="M122.356 412.756C91.621 406.605 68.5422 381.111 56.1113 344.774C43.6821 308.441 41.9181 261.313 53.7838 212.006C65.6495 162.699 88.8917 120.575 116.862 92.3282C144.836 64.0772 177.5 49.7399 208.235 55.8913C238.97 62.0427 262.049 87.5363 274.48 123.874C286.909 160.206 288.673 207.335 276.808 256.642C264.942 305.949 241.7 348.072 213.73 376.319C185.756 404.57 153.092 418.908 122.356 412.756Z" stroke="white" stroke-width="0.586111"/>
<path d="M116.915 408.128C86.1796 401.976 63.1008 376.483 50.6699 340.145C38.2407 303.812 36.4767 256.684 48.3424 207.377C60.2081 158.07 83.4503 115.946 111.42 87.6994C139.394 59.4485 172.058 45.1112 202.794 51.2625C233.529 57.4139 256.608 82.9075 269.039 119.245C281.468 155.578 283.232 202.706 271.366 252.013C259.501 301.32 236.258 343.444 208.288 371.691C180.314 399.942 147.65 414.279 116.915 408.128Z" stroke="white" stroke-width="0.586111"/>
<path d="M111.473 403.499C80.7377 397.348 57.659 371.854 45.228 335.516C32.7988 299.184 31.0348 252.056 42.9005 202.749C54.7662 153.441 78.0084 111.318 105.978 83.0709C133.953 54.8199 166.616 40.4826 197.352 46.634C228.087 52.7854 251.166 78.279 263.597 114.617C276.026 150.949 277.79 198.077 265.924 247.384C254.059 296.692 230.816 338.815 202.846 367.062C174.872 395.313 142.208 409.65 111.473 403.499Z" stroke="white" stroke-width="0.586111"/>
<path d="M106.032 398.87C75.2963 392.719 52.2175 367.225 39.7866 330.888C27.3574 294.555 25.5934 247.427 37.4591 198.12C49.3248 148.813 72.567 106.689 100.537 78.4424C128.511 50.1914 161.175 35.8541 191.91 42.0054C222.646 48.1568 245.725 73.6504 258.155 109.988C270.585 146.321 272.349 193.449 260.483 242.756C248.617 292.063 225.375 334.187 197.405 362.434C169.431 390.685 136.767 405.022 106.032 398.87Z" stroke="white" stroke-width="0.586111"/>
<path d="M100.59 394.242C69.8546 388.091 46.7759 362.597 34.3449 326.26C21.9158 289.927 20.1517 242.799 32.0174 193.492C43.8831 144.184 67.1253 102.061 95.0954 73.8141C123.069 45.5631 155.733 31.2258 186.469 37.3772C217.204 43.5285 240.283 69.0221 252.714 105.36C265.143 141.692 266.907 188.82 255.041 238.128C243.176 287.435 219.933 329.558 191.963 357.805C163.989 386.056 131.325 400.394 100.59 394.242Z" stroke="white" stroke-width="0.586111"/>
<path d="M95.1481 389.614C64.4127 383.462 41.334 357.968 28.903 321.631C16.4739 285.298 14.7098 238.17 26.5755 188.863C38.4412 139.556 61.6834 97.4324 89.6535 69.1854C117.628 40.9344 150.292 26.5971 181.027 32.7485C211.762 38.8999 234.841 64.3935 247.272 100.731C259.701 137.064 261.465 184.192 249.599 233.499C237.734 282.806 214.492 324.93 186.521 353.177C158.547 381.428 125.883 395.765 95.1481 389.614Z" stroke="white" stroke-width="0.586111"/>
<path d="M89.7064 384.985C58.9711 378.834 35.8923 353.34 23.4614 317.002C11.0322 280.67 9.26819 233.542 21.1339 184.234C32.9996 134.927 56.2418 92.8038 84.2119 64.5569C112.186 36.3059 144.85 21.9686 175.585 28.12C206.321 34.2713 229.399 59.7649 241.83 96.1026C254.259 132.435 256.023 179.563 244.158 228.87C232.292 278.178 209.05 320.301 181.08 348.548C153.106 376.799 120.442 391.136 89.7064 384.985Z" stroke="white" stroke-width="0.586111"/>
<path d="M84.2645 380.357C53.5292 374.205 30.4504 348.712 18.0195 312.374C5.59033 276.041 3.82629 228.913 15.692 179.606C27.5577 130.299 50.7999 88.1754 78.77 59.9284C106.744 31.6775 139.408 17.3402 170.143 23.4915C200.879 29.6429 223.957 55.1365 236.388 91.4742C248.818 127.807 250.582 174.935 238.716 224.242C226.85 273.549 203.608 315.673 175.638 343.92C147.664 372.171 115 386.508 84.2645 380.357Z" stroke="white" stroke-width="0.586111"/>
<path d="M78.8229 375.728C48.0875 369.577 25.0088 344.083 12.5779 307.745C0.148684 271.413 -1.61536 224.285 10.2503 174.978C22.116 125.67 45.3583 83.5469 73.3283 55.2999C101.302 27.0489 133.966 12.7116 164.702 18.863C195.437 25.0144 218.516 50.508 230.947 86.8456C243.376 123.178 245.14 170.306 233.274 219.613C221.409 268.921 198.166 311.044 170.196 339.291C142.222 367.542 109.558 381.879 78.8229 375.728Z" stroke="white" stroke-width="0.586111"/>
<path d="M73.3812 371.099C42.6459 364.948 19.5671 339.454 7.1362 303.117C-5.29297 266.784 -7.05701 219.656 4.80868 170.349C16.6744 121.042 39.9166 78.9183 67.8867 50.6714C95.8607 22.4204 128.525 8.08308 159.26 14.2345C189.995 20.3858 213.074 45.8794 225.505 82.2171C237.934 118.55 239.698 165.678 227.833 214.985C215.967 264.292 192.725 306.416 164.755 334.663C136.781 362.914 104.117 377.251 73.3812 371.099Z" stroke="white" stroke-width="0.586111"/>
<path d="M67.9393 366.471C37.204 360.32 14.1252 334.826 1.69431 298.488C-10.7349 262.156 -12.4989 215.028 -0.633215 165.721C11.2325 116.413 34.4747 74.2899 62.4448 46.0429C90.4188 17.792 123.083 3.45467 153.818 9.60604C184.554 15.7574 207.632 41.251 220.063 77.5887C232.492 113.921 234.256 161.049 222.391 210.357C210.525 259.664 187.283 301.787 159.313 330.034C131.339 358.285 98.6747 372.622 67.9393 366.471Z" stroke="white" stroke-width="0.586111"/>
<path d="M62.4977 361.843C31.7623 355.691 8.6836 330.198 -3.74734 293.86C-16.1765 257.527 -17.9406 210.399 -6.07487 161.092C5.79082 111.785 29.0331 69.6614 57.0031 41.4144C84.9772 13.1634 117.641 -1.17387 148.376 4.9775C179.112 11.1289 202.191 36.6225 214.622 72.9601C227.051 109.293 228.815 156.421 216.949 205.728C205.083 255.035 181.841 297.159 153.871 325.406C125.897 353.657 93.233 367.994 62.4977 361.843Z" stroke="white" stroke-width="0.586111"/>
<path d="M8.11252 337.164C2.37427 329.027 1.55448 318.508 5.05148 306.412C8.54832 294.317 16.3534 280.678 27.8061 266.345C50.71 237.68 88.1626 206.286 134.739 178.97C181.316 151.653 228.175 133.598 266.276 126.484C285.328 122.927 302.174 122.108 315.693 124.224C329.212 126.34 339.366 131.384 345.105 139.521C350.843 147.658 351.663 158.176 348.166 170.272C344.669 182.368 336.864 196.006 325.411 210.34C302.507 239.005 265.055 270.398 218.478 297.715C171.901 325.032 125.042 343.086 86.9408 350.201C67.8889 353.758 51.0432 354.577 37.5246 352.461C24.0053 350.345 13.8508 345.301 8.11252 337.164Z" stroke="white" stroke-width="0.586111"/>
<path d="M11.4775 341.615C5.17194 333.821 3.71678 323.508 6.54864 311.487C9.38037 299.467 16.4926 285.773 27.2651 271.264C48.8088 242.249 84.9546 210.023 130.601 181.475C176.247 152.928 222.729 133.478 260.972 125.104C280.095 120.916 297.141 119.501 310.985 121.092C324.829 122.683 335.433 127.275 341.739 135.069C348.044 142.863 349.499 153.177 346.667 165.197C343.836 177.217 336.723 190.911 325.951 205.42C304.407 234.436 268.261 266.662 222.615 295.209C176.969 323.756 130.487 343.206 92.244 351.581C73.1213 355.769 56.0751 357.184 42.2313 355.592C28.3868 354.001 17.783 349.409 11.4775 341.615Z" stroke="white" stroke-width="0.586111"/>
<path d="M14.1678 344.78C7.45016 337.249 5.52704 327.1 7.86366 315.15C10.2002 303.2 16.7914 289.482 27.0479 274.861C47.5595 245.621 82.6948 212.82 127.597 183.397C172.5 153.975 218.646 133.518 256.947 124.221C276.099 119.572 293.272 117.718 307.34 118.92C321.408 120.121 332.331 124.373 339.048 131.904C345.766 139.435 347.689 149.585 345.353 161.535C343.016 173.485 336.425 187.203 326.168 201.823C305.657 231.063 270.521 263.865 225.619 293.287C180.716 322.709 134.57 343.167 96.2692 352.464C77.1176 357.112 59.944 358.966 45.8766 357.765C31.8087 356.564 20.8854 352.311 14.1678 344.78Z" stroke="white" stroke-width="0.586111"/>
<path d="M14.4888 339.68C7.7712 332.149 5.84809 322 8.1847 310.049C10.5212 298.099 17.1124 284.382 27.3689 269.761C47.8805 240.521 83.0159 207.719 127.918 178.297C172.821 148.875 218.967 128.418 257.268 119.121C276.42 114.472 293.593 112.618 307.661 113.819C321.729 115.021 332.652 119.273 339.37 126.804C346.087 134.335 348.01 144.484 345.674 156.435C343.337 168.385 336.746 182.102 326.489 196.723C305.978 225.963 270.842 258.765 225.94 288.187C181.037 317.609 134.891 338.067 96.5903 347.363C77.4386 352.012 60.2651 353.866 46.1976 352.665C32.1297 351.463 21.2064 347.211 14.4888 339.68Z" stroke="white" stroke-width="0.586111"/>
<path d="M14.8103 334.58C8.09274 327.049 6.16962 316.899 8.50624 304.949C10.8428 292.999 17.434 279.281 27.6904 264.661C48.2021 235.421 83.3374 202.619 128.24 173.197C173.143 143.775 219.289 123.317 257.59 114.021C276.741 109.372 293.915 107.518 307.982 108.719C322.05 109.921 332.973 114.173 339.691 121.704C346.409 129.235 348.332 139.384 345.995 151.335C343.659 163.285 337.067 177.002 326.811 191.623C306.299 220.863 271.164 253.664 226.261 283.087C181.359 312.509 135.213 332.966 96.9118 342.263C77.7602 346.912 60.5866 348.766 46.5192 347.564C32.4512 346.363 21.5279 342.111 14.8103 334.58Z" stroke="white" stroke-width="0.586111"/>
<path d="M15.1316 329.48C8.41403 321.949 6.49091 311.799 8.82753 299.849C11.164 287.899 17.7553 274.181 28.0117 259.56C48.5234 230.321 83.6587 197.519 128.561 168.097C173.464 138.675 219.61 118.217 257.911 108.92C277.063 104.272 294.236 102.418 308.303 103.619C322.371 104.82 333.295 109.073 340.012 116.604C346.73 124.134 348.653 134.284 346.316 146.234C343.98 158.184 337.389 171.902 327.132 186.523C306.621 215.763 271.485 248.564 226.583 277.986C181.68 307.409 135.534 327.866 97.2331 337.163C78.0815 341.812 60.9079 343.666 46.8405 342.464C32.7725 341.263 21.8492 337.011 15.1316 329.48Z" stroke="white" stroke-width="0.586111"/>
<path d="M15.4527 324.38C8.73507 316.849 6.81196 306.699 9.14857 294.749C11.4851 282.799 18.0763 269.081 28.3328 254.46C48.8444 225.221 83.9797 192.419 128.882 162.997C173.785 133.575 219.931 113.117 258.232 103.82C277.384 99.1716 294.557 97.3175 308.625 98.5188C322.692 99.7202 333.616 103.972 340.333 111.503C347.051 119.034 348.974 129.184 346.637 141.134C344.301 153.084 337.71 166.802 327.453 181.423C306.942 210.663 271.806 243.464 226.904 272.886C182.001 302.308 135.855 322.766 97.5541 332.063C78.4025 336.711 61.229 338.566 47.1615 337.364C33.0936 336.163 22.1703 331.911 15.4527 324.38Z" stroke="white" stroke-width="0.586111"/>
<path d="M15.774 319.279C9.05636 311.748 7.13325 301.599 9.46986 289.648C11.8064 277.698 18.3976 263.981 28.6541 249.36C49.1657 220.12 84.301 187.319 129.204 157.896C174.106 128.474 220.252 108.017 258.553 98.7199C277.705 94.0712 294.878 92.2172 308.946 93.4185C323.014 94.6199 333.937 98.8721 340.655 106.403C347.372 113.934 349.295 124.084 346.959 136.034C344.622 147.984 338.031 161.702 327.775 176.322C307.263 205.562 272.128 238.364 227.225 267.786C182.322 297.208 136.176 317.666 97.8754 326.962C78.7238 331.611 61.5502 333.465 47.4828 332.264C33.4149 331.062 22.4916 326.81 15.774 319.279Z" stroke="white" stroke-width="0.586111"/>
<path d="M16.0943 314.179C9.37667 306.648 7.45356 296.499 9.79017 284.548C12.1267 272.598 18.7179 258.881 28.9744 244.26C49.486 215.02 84.6213 182.218 129.524 152.796C174.426 123.374 220.573 102.917 258.874 93.6198C278.025 88.9711 295.199 87.1171 309.266 88.3184C323.334 89.5198 334.257 93.772 340.975 101.303C347.693 108.834 349.616 118.983 347.279 130.934C344.943 142.884 338.351 156.601 328.095 171.222C307.583 200.462 272.448 233.264 227.545 262.686C182.643 292.108 136.497 312.566 98.1957 321.862C79.0441 326.511 61.8706 328.365 47.8031 327.164C33.7352 325.962 22.8119 321.71 16.0943 314.179Z" stroke="white" stroke-width="0.586111"/>
<path d="M16.4158 309.079C9.69821 301.548 7.77509 291.399 10.1117 279.448C12.4482 267.499 19.0394 253.781 29.2959 239.16C49.8076 209.92 84.9429 177.119 129.845 147.696C174.748 118.274 220.894 97.8167 259.195 88.5199C278.347 83.8713 295.52 82.0172 309.588 83.2185C323.656 84.4199 334.579 88.6722 341.297 96.2031C348.014 103.734 349.937 113.884 347.601 125.834C345.264 137.784 338.673 151.502 328.416 166.122C307.905 195.362 272.769 228.164 227.867 257.586C182.964 287.008 136.818 307.466 98.5173 316.762C79.3656 321.411 62.1921 323.265 48.1247 322.064C34.0567 320.863 23.1334 316.61 16.4158 309.079Z" stroke="white" stroke-width="0.586111"/>
<path d="M16.7366 303.979C10.019 296.448 8.09589 286.298 10.4325 274.348C12.769 262.398 19.3602 248.68 29.6167 234.06C50.1284 204.82 85.2637 172.018 130.166 142.596C175.069 113.174 221.215 92.7162 259.516 83.4195C278.667 78.7708 295.841 76.9168 309.908 78.1181C323.976 79.3195 334.9 83.5717 341.617 91.1026C348.335 98.6336 350.258 108.783 347.921 120.734C345.585 132.683 338.994 146.401 328.737 161.022C308.226 190.262 273.09 223.063 228.188 252.486C183.285 281.908 137.139 302.365 98.8381 311.662C79.6864 316.311 62.5129 318.165 48.4455 316.963C34.3775 315.762 23.4542 311.51 16.7366 303.979Z" stroke="white" stroke-width="0.586111"/>
<path d="M17.0574 298.879C10.3398 291.348 8.41669 281.198 10.7533 269.248C13.0898 257.298 19.681 243.58 29.9375 228.959C50.4492 199.72 85.5845 166.918 130.487 137.496C175.39 108.074 221.536 87.616 259.837 78.3193C278.988 73.6706 296.162 71.8165 310.229 73.0179C324.297 74.2192 335.221 78.4715 341.938 86.0024C348.656 93.5334 350.579 103.683 348.242 115.633C345.906 127.583 339.314 141.301 329.058 155.922C308.546 185.162 273.411 217.963 228.508 247.385C183.606 276.807 137.46 297.265 99.1589 306.562C80.0072 311.21 62.8337 313.065 48.7663 311.863C34.6983 310.662 23.775 306.41 17.0574 298.879Z" stroke="white" stroke-width="0.586111"/>
<path d="M17.3792 293.779C10.6616 286.248 8.73847 276.098 11.0751 264.148C13.4116 252.198 20.0028 238.48 30.2593 223.859C50.7709 194.62 85.9063 161.818 130.809 132.396C175.711 102.974 221.858 82.516 260.158 73.2193C279.31 68.5706 296.484 66.7166 310.551 67.9179C324.619 69.1193 335.542 73.3715 342.26 80.9025C348.977 88.4334 350.901 98.583 348.564 110.533C346.227 122.483 339.636 136.201 329.38 150.822C308.868 180.062 273.733 212.863 228.83 242.285C183.928 271.707 137.781 292.165 99.4806 301.462C80.329 306.11 63.1555 307.965 49.088 306.763C35.0201 305.562 24.0968 301.31 17.3792 293.779Z" stroke="white" stroke-width="0.586111"/>
<path d="M17.7007 288.678C10.9831 281.147 9.06 270.998 11.3966 259.047C13.7331 247.097 20.3243 233.38 30.5808 218.759C51.0925 189.519 86.2278 156.717 131.13 127.295C176.033 97.873 222.179 77.4154 260.48 68.1187C279.632 63.47 296.805 61.616 310.873 62.8173C324.941 64.0187 335.864 68.2709 342.581 75.8019C349.299 83.3328 351.222 93.4824 348.886 105.433C346.549 117.383 339.958 131.1 329.701 145.721C309.19 174.961 274.054 207.763 229.152 237.185C184.249 266.607 138.103 287.065 99.8022 296.361C80.6505 301.01 63.477 302.864 49.4096 301.663C35.3416 300.461 24.4183 296.209 17.7007 288.678Z" stroke="white" stroke-width="0.586111"/>
<path d="M18.021 283.578C11.3034 276.047 9.38032 265.897 11.7169 253.947C14.0535 241.997 20.6447 228.279 30.9011 213.659C51.4128 184.419 86.5481 151.617 131.451 122.195C176.353 92.7728 222.499 72.3152 260.8 63.0185C279.952 58.3698 297.125 56.5158 311.193 57.7171C325.261 58.9185 336.184 63.1707 342.902 70.7016C349.619 78.2326 351.542 88.3822 349.206 100.333C346.869 112.282 340.278 126 330.022 140.621C309.51 169.861 274.375 202.662 229.472 232.085C184.57 261.507 138.423 281.964 100.122 291.261C80.9709 295.91 63.7973 297.764 49.7299 296.562C35.6619 295.361 24.7386 291.109 18.021 283.578Z" stroke="white" stroke-width="0.586111"/>
<path d="M18.3416 278.478C11.624 270.947 9.70087 260.797 12.0375 248.847C14.374 236.897 20.9652 223.179 31.2217 208.558C51.7333 179.319 86.8687 146.517 131.771 117.095C176.674 87.6726 222.82 67.215 261.121 57.9183C280.272 53.2696 297.446 51.4155 311.513 52.6169C325.581 53.8182 336.505 58.0705 343.222 65.6014C349.94 73.1324 351.863 83.2819 349.526 95.2323C347.19 107.182 340.599 120.9 330.342 135.521C309.831 164.761 274.695 197.562 229.793 226.984C184.89 256.406 138.744 276.864 100.443 286.161C81.2914 290.809 64.1179 292.664 50.0504 291.462C35.9825 290.261 25.0592 286.009 18.3416 278.478Z" stroke="white" stroke-width="0.586111"/>
<path d="M18.6634 273.378C11.9458 265.847 10.0226 255.697 12.3593 243.747C14.6958 231.797 21.287 218.079 31.5435 203.458C52.0551 174.219 87.1904 141.417 132.093 111.995C176.996 82.5726 223.142 62.115 261.443 52.8183C280.594 48.1696 297.768 46.3156 311.835 47.5169C325.903 48.7183 336.826 52.9705 343.544 60.5015C350.262 68.0324 352.185 78.182 349.848 90.1323C347.512 102.082 340.92 115.8 330.664 130.421C310.152 159.661 275.017 192.462 230.114 221.884C185.212 251.306 139.066 271.764 100.765 281.061C81.6132 285.709 64.4396 287.564 50.3722 286.362C36.3043 285.161 25.381 280.909 18.6634 273.378Z" stroke="white" stroke-width="0.586111"/>
<path d="M18.9842 268.278C12.2666 260.747 10.3435 250.597 12.6801 238.647C15.0166 226.697 21.6078 212.979 31.8643 198.358C52.3759 169.118 87.5112 136.317 132.414 106.895C177.316 77.4725 223.463 57.0149 261.763 47.7182C280.915 43.0695 298.089 41.2155 312.156 42.4168C326.224 43.6182 337.147 47.8704 343.865 55.4014C350.582 62.9323 352.506 73.0819 350.169 85.0322C347.832 96.9821 341.241 110.7 330.985 125.321C310.473 154.56 275.338 187.362 230.435 216.784C185.533 246.206 139.386 266.664 101.086 275.961C81.934 280.609 64.7604 282.463 50.693 281.262C36.6251 280.061 25.7018 275.809 18.9842 268.278Z" stroke="white" stroke-width="0.586111"/>
<path d="M19.3052 263.177C12.5876 255.646 10.6645 245.496 13.0011 233.546C15.3376 221.596 21.9288 207.879 32.1853 193.258C52.697 164.018 87.8323 131.216 132.735 101.794C177.637 72.3719 223.784 51.9143 262.084 42.6176C281.236 37.9689 298.41 36.1149 312.477 37.3162C326.545 38.5176 337.468 42.7698 344.186 50.3008C350.904 57.8317 352.827 67.9813 350.49 79.9316C348.153 91.8816 341.562 105.599 331.306 120.22C310.794 149.46 275.659 182.262 230.756 211.684C185.854 241.106 139.708 261.563 101.407 270.86C82.255 275.509 65.0815 277.363 51.0141 276.162C36.9461 274.96 26.0228 270.708 19.3052 263.177Z" stroke="white" stroke-width="0.586111"/>
<path d="M19.6267 258.077C12.9091 250.546 10.986 240.396 13.3226 228.446C15.6592 216.496 22.2504 202.779 32.5068 188.158C53.0185 158.918 88.1538 126.116 133.056 96.6941C177.959 67.272 224.105 46.8144 262.406 37.5176C281.558 32.869 298.731 31.0149 312.799 32.2162C326.867 33.4176 337.79 37.6698 344.507 45.2008C351.225 52.7317 353.148 62.8813 350.812 74.8317C348.475 86.7816 341.884 100.499 331.627 115.12C311.116 144.36 275.98 177.162 231.078 206.584C186.175 236.006 140.029 256.463 101.728 265.76C82.5766 270.409 65.403 272.263 51.3356 271.062C37.2676 269.86 26.3443 265.608 19.6267 258.077Z" stroke="white" stroke-width="0.586111"/>
<path d="M19.9478 252.977C13.2302 245.446 11.3071 235.296 13.6437 223.346C15.9802 211.396 22.5714 197.678 32.8279 183.058C53.3395 153.818 88.4749 121.016 133.377 91.594C178.28 62.1719 224.426 41.7143 262.727 32.4175C281.879 27.7689 299.052 25.9148 313.12 27.1161C327.188 28.3175 338.111 32.5697 344.828 40.1007C351.546 47.6316 353.469 57.7812 351.133 69.7316C348.796 81.6815 342.205 95.3992 331.948 110.02C311.437 139.26 276.301 172.061 231.399 201.484C186.496 230.906 140.35 251.363 102.049 260.66C82.8976 265.309 65.7241 267.163 51.6566 265.961C37.5887 264.76 26.6654 260.508 19.9478 252.977Z" stroke="white" stroke-width="0.586111"/>
<g filter="url(#filter0_d_125_3)">
<circle cx="156.415" cy="202.132" r="87.2542" fill="#18191D"/>
</g>
<path d="M122.428 203.921L156.153 174.732C156.304 174.602 156.527 174.602 156.676 174.733L166.232 183.119C166.489 183.344 166.892 183.162 166.892 182.82V174.902C166.892 174.683 167.069 174.505 167.289 174.505H175.611C175.83 174.505 176.008 174.683 176.008 174.902V191.032C176.008 191.146 176.057 191.254 176.143 191.33L190.403 203.921" stroke="#83735C" stroke-width="1.98757" stroke-linecap="round"/>
<g filter="url(#filter1_d_125_3)">
<path d="M175 217.815V212.663H181.609C183.703 213.055 185.204 214.487 185.235 216.324C185.266 218.193 183.852 219.881 181.609 220.09H175V228.746" stroke="#83735C" stroke-width="2.08869"/>
</g>
<g filter="url(#filter2_d_125_3)">
<path d="M128.788 212.663H134.518C138.219 213.622 139.85 215.926 140.015 219.282C140.191 222.854 138.542 225.541 134.518 226.605H129.795V215.165" stroke="#83735C" stroke-width="2.08869"/>
</g>
<line x1="149.757" y1="211.073" x2="154.613" y2="223.188" stroke="#83735C" stroke-width="2.08869"/>
<path d="M148.474 210.678H150.719L148.866 211.566L148.474 210.678Z" fill="#83735C" stroke="#83735C" stroke-width="0.0522173"/>
<g filter="url(#filter3_d_125_3)">
<path d="M157.769 228.563L155.863 227.806L155.524 228.563L157.769 228.563Z" fill="#83735C"/>
<path d="M157.769 228.563L155.863 227.806L155.524 228.563L157.769 228.563Z" stroke="#83735C" stroke-width="0.0522173"/>
</g>
<g filter="url(#filter4_d_125_3)">
<path d="M154.401 225.326L155.524 222.845L153.67 223.576L154.401 225.326Z" fill="#83735C"/>
<path d="M154.401 225.326L155.524 222.845L153.67 223.576L154.401 225.326Z" stroke="#83735C" stroke-width="0.0522173"/>
</g>
<g filter="url(#filter5_d_125_3)">
<path d="M164.931 210.886L162.677 210.902L164.544 211.777L164.931 210.886Z" fill="#83735C"/>
<path d="M164.931 210.886L162.677 210.902L164.544 211.777L164.931 210.886Z" stroke="#83735C" stroke-width="0.0522173"/>
</g>
<path d="M156.803 228.171L163.639 211.284" stroke="#83735C" stroke-width="2.08869"/>
<defs>
<filter id="filter0_d_125_3" x="67.5711" y="114.878" width="177.689" height="177.689" filterUnits="userSpaceOnUse" color-interpolation-filters="sRGB">
<feFlood flood-opacity="0" result="BackgroundImageFix"/>
<feColorMatrix in="SourceAlpha" type="matrix" values="0 0 0 0 0 0 0 0 0 0 0 0 0 0 0 0 0 0 127 0" result="hardAlpha"/>
<feOffset dy="1.59005"/>
<feGaussianBlur stdDeviation="0.795027"/>
<feComposite in2="hardAlpha" operator="out"/>
<feColorMatrix type="matrix" values="0 0 0 0 0 0 0 0 0 0 0 0 0 0 0 0 0 0 0.25 0"/>
<feBlend mode="normal" in2="BackgroundImageFix" result="effect1_dropShadow_125_3"/>
<feBlend mode="normal" in="SourceGraphic" in2="effect1_dropShadow_125_3" result="shape"/>
</filter>
<filter id="filter1_d_125_3" x="173.747" y="211.619" width="12.7412" height="17.5449" filterUnits="userSpaceOnUse" color-interpolation-filters="sRGB">
<feFlood flood-opacity="0" result="BackgroundImageFix"/>
<feColorMatrix in="SourceAlpha" type="matrix" values="0 0 0 0 0 0 0 0 0 0 0 0 0 0 0 0 0 0 127 0" result="hardAlpha"/>
<feOffset dy="0.208869"/>
<feGaussianBlur stdDeviation="0.104435"/>
<feComposite in2="hardAlpha" operator="out"/>
<feColorMatrix type="matrix" values="0 0 0 0 0 0 0 0 0 0 0 0 0 0 0 0 0 0 0.25 0"/>
<feBlend mode="normal" in2="BackgroundImageFix" result="effect1_dropShadow_125_3"/>
<feBlend mode="normal" in="SourceGraphic" in2="effect1_dropShadow_125_3" result="shape"/>
</filter>
<filter id="filter2_d_125_3" x="128.542" y="211.619" width="12.7393" height="16.4484" filterUnits="userSpaceOnUse" color-interpolation-filters="sRGB">
<feFlood flood-opacity="0" result="BackgroundImageFix"/>
<feColorMatrix in="SourceAlpha" type="matrix" values="0 0 0 0 0 0 0 0 0 0 0 0 0 0 0 0 0 0 127 0" result="hardAlpha"/>
<feOffset dy="0.208869"/>
<feGaussianBlur stdDeviation="0.104435"/>
<feComposite in2="hardAlpha" operator="out"/>
<feColorMatrix type="matrix" values="0 0 0 0 0 0 0 0 0 0 0 0 0 0 0 0 0 0 0.25 0"/>
<feBlend mode="normal" in2="BackgroundImageFix" result="effect1_dropShadow_125_3"/>
<feBlend mode="normal" in="SourceGraphic" in2="effect1_dropShadow_125_3" result="shape"/>
</filter>
<filter id="filter3_d_125_3" x="155.275" y="227.772" width="2.7129" height="1.23451" filterUnits="userSpaceOnUse" color-interpolation-filters="sRGB">
<feFlood flood-opacity="0" result="BackgroundImageFix"/>
<feColorMatrix in="SourceAlpha" type="matrix" values="0 0 0 0 0 0 0 0 0 0 0 0 0 0 0 0 0 0 127 0" result="hardAlpha"/>
<feOffset dy="0.208869"/>
<feGaussianBlur stdDeviation="0.104435"/>
<feComposite in2="hardAlpha" operator="out"/>
<feColorMatrix type="matrix" values="0 0 0 0 0 0 0 0 0 0 0 0 0 0 0 0 0 0 0.25 0"/>
<feBlend mode="normal" in2="BackgroundImageFix" result="effect1_dropShadow_125_3"/>
<feBlend mode="normal" in="SourceGraphic" in2="effect1_dropShadow_125_3" result="shape"/>
</filter>
<filter id="filter4_d_125_3" x="153.427" y="222.797" width="2.35622" height="3.01137" filterUnits="userSpaceOnUse" color-interpolation-filters="sRGB">
<feFlood flood-opacity="0" result="BackgroundImageFix"/>
<feColorMatrix in="SourceAlpha" type="matrix" values="0 0 0 0 0 0 0 0 0 0 0 0 0 0 0 0 0 0 127 0" result="hardAlpha"/>
<feOffset dy="0.208869"/>
<feGaussianBlur stdDeviation="0.104435"/>
<feComposite in2="hardAlpha" operator="out"/>
<feColorMatrix type="matrix" values="0 0 0 0 0 0 0 0 0 0 0 0 0 0 0 0 0 0 0.25 0"/>
<feBlend mode="normal" in2="BackgroundImageFix" result="effect1_dropShadow_125_3"/>
<feBlend mode="normal" in="SourceGraphic" in2="effect1_dropShadow_125_3" result="shape"/>
</filter>
<filter id="filter5_d_125_3" x="162.457" y="210.86" width="2.72243" height="1.36952" filterUnits="userSpaceOnUse" color-interpolation-filters="sRGB">
<feFlood flood-opacity="0" result="BackgroundImageFix"/>
<feColorMatrix in="SourceAlpha" type="matrix" values="0 0 0 0 0 0 0 0 0 0 0 0 0 0 0 0 0 0 127 0" result="hardAlpha"/>
<feOffset dy="0.208869"/>
<feGaussianBlur stdDeviation="0.104435"/>
<feComposite in2="hardAlpha" operator="out"/>
<feColorMatrix type="matrix" values="0 0 0 0 0 0 0 0 0 0 0 0 0 0 0 0 0 0 0.25 0"/>
<feBlend mode="normal" in2="BackgroundImageFix" result="effect1_dropShadow_125_3"/>
<feBlend mode="normal" in="SourceGraphic" in2="effect1_dropShadow_125_3" result="shape"/>
</filter>
</defs>
</svg>
