<svg width="304" height="304" viewBox="0 0 304 304" fill="none" xmlns="http://www.w3.org/2000/svg">
<g filter="url(#filter0_d_36_298)">
<circle cx="151.87" cy="148.87" r="148.87" fill="#18191D"/>
</g>
<path d="M93.8818 151.922L151.423 102.12C151.679 101.899 152.059 101.9 152.314 102.123L168.618 116.43C169.057 116.814 169.744 116.503 169.744 115.92V102.412C169.744 102.037 170.047 101.733 170.422 101.733H184.62C184.995 101.733 185.298 102.037 185.298 102.412V129.931C185.298 130.126 185.382 130.311 185.528 130.44L209.858 151.922" stroke="#83735C" stroke-width="3.39111" stroke-linecap="round"/>
<g filter="url(#filter1_d_36_298)">
<path d="M183.579 175.627V166.837H194.855C198.428 167.506 200.987 169.949 201.04 173.083C201.094 176.273 198.681 179.152 194.855 179.508H183.579V194.277" stroke="#83735C" stroke-width="3.56365"/>
</g>
<g filter="url(#filter2_d_36_298)">
<path d="M104.733 166.837H114.509C120.824 168.474 123.607 172.404 123.888 178.13C124.188 184.224 121.374 188.809 114.509 190.624H106.451V171.105" stroke="#83735C" stroke-width="3.56365"/>
</g>
<line x1="140.509" y1="164.125" x2="148.795" y2="184.794" stroke="#83735C" stroke-width="3.56365"/>
<path d="M138.32 163.451H142.151L138.988 164.966L138.32 163.451Z" fill="#83735C" stroke="#83735C" stroke-width="0.0890912"/>
<g filter="url(#filter3_d_36_298)">
<path d="M154.179 193.965L150.927 192.674L150.348 193.965L154.179 193.965Z" fill="#83735C"/>
<path d="M154.179 193.965L150.927 192.674L150.348 193.965L154.179 193.965Z" stroke="#83735C" stroke-width="0.0890912"/>
</g>
<g filter="url(#filter4_d_36_298)">
<path d="M148.433 188.442L150.348 184.21L147.185 185.457L148.433 188.442Z" fill="#83735C"/>
<path d="M148.433 188.442L150.348 184.21L147.185 185.457L148.433 188.442Z" stroke="#83735C" stroke-width="0.0890912"/>
</g>
<g filter="url(#filter5_d_36_298)">
<path d="M166.398 163.806L162.553 163.832L165.738 165.325L166.398 163.806Z" fill="#83735C"/>
<path d="M166.398 163.806L162.553 163.832L165.738 165.325L166.398 163.806Z" stroke="#83735C" stroke-width="0.0890912"/>
</g>
<path d="M152.531 193.297L164.195 164.484" stroke="#83735C" stroke-width="3.56365"/>
<defs>
<filter id="filter0_d_36_298" x="0.287112" y="0" width="303.165" height="303.165" filterUnits="userSpaceOnUse" color-interpolation-filters="sRGB">
<feFlood flood-opacity="0" result="BackgroundImageFix"/>
<feColorMatrix in="SourceAlpha" type="matrix" values="0 0 0 0 0 0 0 0 0 0 0 0 0 0 0 0 0 0 127 0" result="hardAlpha"/>
<feOffset dy="2.71289"/>
<feGaussianBlur stdDeviation="1.35644"/>
<feComposite in2="hardAlpha" operator="out"/>
<feColorMatrix type="matrix" values="0 0 0 0 0 0 0 0 0 0 0 0 0 0 0 0 0 0 0.25 0"/>
<feBlend mode="normal" in2="BackgroundImageFix" result="effect1_dropShadow_36_298"/>
<feBlend mode="normal" in="SourceGraphic" in2="effect1_dropShadow_36_298" result="shape"/>
</filter>
<filter id="filter1_d_36_298" x="181.441" y="165.055" width="21.7381" height="29.9347" filterUnits="userSpaceOnUse" color-interpolation-filters="sRGB">
<feFlood flood-opacity="0" result="BackgroundImageFix"/>
<feColorMatrix in="SourceAlpha" type="matrix" values="0 0 0 0 0 0 0 0 0 0 0 0 0 0 0 0 0 0 127 0" result="hardAlpha"/>
<feOffset dy="0.356365"/>
<feGaussianBlur stdDeviation="0.178182"/>
<feComposite in2="hardAlpha" operator="out"/>
<feColorMatrix type="matrix" values="0 0 0 0 0 0 0 0 0 0 0 0 0 0 0 0 0 0 0.25 0"/>
<feBlend mode="normal" in2="BackgroundImageFix" result="effect1_dropShadow_36_298"/>
<feBlend mode="normal" in="SourceGraphic" in2="effect1_dropShadow_36_298" result="shape"/>
</filter>
<filter id="filter2_d_36_298" x="104.313" y="165.055" width="21.7352" height="28.0636" filterUnits="userSpaceOnUse" color-interpolation-filters="sRGB">
<feFlood flood-opacity="0" result="BackgroundImageFix"/>
<feColorMatrix in="SourceAlpha" type="matrix" values="0 0 0 0 0 0 0 0 0 0 0 0 0 0 0 0 0 0 127 0" result="hardAlpha"/>
<feOffset dy="0.356365"/>
<feGaussianBlur stdDeviation="0.178182"/>
<feComposite in2="hardAlpha" operator="out"/>
<feColorMatrix type="matrix" values="0 0 0 0 0 0 0 0 0 0 0 0 0 0 0 0 0 0 0.25 0"/>
<feBlend mode="normal" in2="BackgroundImageFix" result="effect1_dropShadow_36_298"/>
<feBlend mode="normal" in="SourceGraphic" in2="effect1_dropShadow_36_298" result="shape"/>
</filter>
<filter id="filter3_d_36_298" x="149.922" y="192.616" width="4.62923" height="2.10604" filterUnits="userSpaceOnUse" color-interpolation-filters="sRGB">
<feFlood flood-opacity="0" result="BackgroundImageFix"/>
<feColorMatrix in="SourceAlpha" type="matrix" values="0 0 0 0 0 0 0 0 0 0 0 0 0 0 0 0 0 0 127 0" result="hardAlpha"/>
<feOffset dy="0.356365"/>
<feGaussianBlur stdDeviation="0.178182"/>
<feComposite in2="hardAlpha" operator="out"/>
<feColorMatrix type="matrix" values="0 0 0 0 0 0 0 0 0 0 0 0 0 0 0 0 0 0 0.25 0"/>
<feBlend mode="normal" in2="BackgroundImageFix" result="effect1_dropShadow_36_298"/>
<feBlend mode="normal" in="SourceGraphic" in2="effect1_dropShadow_36_298" result="shape"/>
</filter>
<filter id="filter4_d_36_298" x="146.771" y="184.128" width="4.01986" height="5.13778" filterUnits="userSpaceOnUse" color-interpolation-filters="sRGB">
<feFlood flood-opacity="0" result="BackgroundImageFix"/>
<feColorMatrix in="SourceAlpha" type="matrix" values="0 0 0 0 0 0 0 0 0 0 0 0 0 0 0 0 0 0 127 0" result="hardAlpha"/>
<feOffset dy="0.356365"/>
<feGaussianBlur stdDeviation="0.178182"/>
<feComposite in2="hardAlpha" operator="out"/>
<feColorMatrix type="matrix" values="0 0 0 0 0 0 0 0 0 0 0 0 0 0 0 0 0 0 0.25 0"/>
<feBlend mode="normal" in2="BackgroundImageFix" result="effect1_dropShadow_36_298"/>
<feBlend mode="normal" in="SourceGraphic" in2="effect1_dropShadow_36_298" result="shape"/>
</filter>
<filter id="filter5_d_36_298" x="162.178" y="163.761" width="4.64486" height="2.33651" filterUnits="userSpaceOnUse" color-interpolation-filters="sRGB">
<feFlood flood-opacity="0" result="BackgroundImageFix"/>
<feColorMatrix in="SourceAlpha" type="matrix" values="0 0 0 0 0 0 0 0 0 0 0 0 0 0 0 0 0 0 127 0" result="hardAlpha"/>
<feOffset dy="0.356365"/>
<feGaussianBlur stdDeviation="0.178182"/>
<feComposite in2="hardAlpha" operator="out"/>
<feColorMatrix type="matrix" values="0 0 0 0 0 0 0 0 0 0 0 0 0 0 0 0 0 0 0.25 0"/>
<feBlend mode="normal" in2="BackgroundImageFix" result="effect1_dropShadow_36_298"/>
<feBlend mode="normal" in="SourceGraphic" in2="effect1_dropShadow_36_298" result="shape"/>
</filter>
</defs>
</svg>
