<svg width="68" height="73" viewBox="0 0 68 73" fill="none" xmlns="http://www.w3.org/2000/svg">
<path d="M66.5 38.5205C66.5 56.7529 51.9493 71.5332 34 71.5332" stroke="black" stroke-width="2"/>
<path d="M33.5 71.5332C15.5507 71.5332 1 56.7529 1 38.5205" stroke="black" stroke-width="2"/>
<path d="M33.5 5L22.7917 0.679628L24.4043 12.1135L33.5 5ZM2 38.0127C2 23.3682 11.6735 11.0309 24.8636 7.21789L24.3081 5.29656C10.2676 9.35547 0 22.4722 0 38.0127H2Z" fill="black"/>
<path d="M65.5 38.0127C65.5 38.5649 65.9477 39.0127 66.5 39.0127C67.0523 39.0127 67.5 38.5649 67.5 38.0127H65.5ZM34 6C35.4056 6 36.7893 6.0935 38.1453 6.27461L38.4101 4.29221C36.9665 4.09942 35.4944 4 34 4V6ZM46.1333 8.4608C48.6995 9.55033 51.0944 10.9755 53.2646 12.6827L54.5012 11.1108C52.1942 9.29592 49.6467 7.77966 46.9149 6.61985L46.1333 8.4608ZM59.0602 18.6142C60.7121 20.8148 62.0897 23.2393 63.1411 25.835L64.9948 25.0841C63.8778 22.3266 62.4144 19.7511 60.6597 17.4135L59.0602 18.6142ZM65.2375 33.8601C65.4107 35.219 65.5 36.605 65.5 38.0127H67.5C67.5 36.5203 67.4053 35.0498 67.2215 33.6073L65.2375 33.8601ZM65.5 38.0127C65.5 38.5649 65.9477 39.0127 66.5 39.0127C67.0523 39.0127 67.5 38.5649 67.5 38.0127H65.5ZM34 6C35.4056 6 36.7893 6.0935 38.1453 6.27461L38.4101 4.29221C36.9665 4.09942 35.4944 4 34 4V6ZM46.1333 8.4608C48.6995 9.55033 51.0944 10.9755 53.2646 12.6827L54.5012 11.1108C52.1942 9.29592 49.6467 7.77966 46.9149 6.61985L46.1333 8.4608ZM59.0602 18.6142C60.7121 20.8148 62.0897 23.2393 63.1411 25.835L64.9948 25.0841C63.8778 22.3266 62.4144 19.7511 60.6597 17.4135L59.0602 18.6142ZM65.2375 33.8601C65.4107 35.219 65.5 36.605 65.5 38.0127H67.5C67.5 36.5203 67.4053 35.0498 67.2215 33.6073L65.2375 33.8601Z" fill="black"/>
<path d="M22.1909 19.7852H47.4491" stroke="#83735C" stroke-width="5" stroke-linecap="round"/>
<path d="M21.1211 61.3141H47.6636" stroke="#83735C" stroke-width="5" stroke-linecap="round"/>
<path d="M22.7094 21.9594C22.7094 21.9594 22.0251 26.4201 22.7094 29.1346C23.3681 31.7475 24.1584 33.2047 25.9202 35.2226C27.9664 37.5662 32.5558 39.5712 32.5558 39.5712V41.9629" stroke="#83735C" stroke-width="2"/>
<path d="M22.7094 59.3572C22.7094 59.3572 22.0251 54.8965 22.7094 52.182C23.3681 49.5692 24.1583 48.112 25.9201 46.094C27.9663 43.7504 32.5556 41.7455 32.5556 41.7455V39.3537" stroke="#83735C" stroke-width="2"/>
<path d="M45.5225 59.3572C45.5225 59.3572 46.2068 54.8965 45.5225 52.182C44.8638 49.5692 44.0736 48.112 42.3117 46.094C40.2655 43.7504 35.6761 41.7455 35.6761 41.7455V39.3537" stroke="#83735C" stroke-width="2"/>
<path d="M45.5225 21.9594C45.5225 21.9594 46.2068 26.4201 45.5225 29.1346C44.8638 31.7475 44.0736 33.2047 42.3118 35.2226C40.2656 37.5662 35.6763 39.5712 35.6763 39.5712V41.9629" stroke="#83735C" stroke-width="2"/>
<path d="M33.9995 55.4435C33.9995 55.4435 36.1113 56.9867 37.6386 57.6178C39.7774 58.5015 43.4536 58.7049 43.4536 58.7049H24.5454C24.5454 58.7049 27.9201 58.3714 29.9327 57.6178C31.6166 56.9872 33.9995 55.4435 33.9995 55.4435Z" fill="#83735C"/>
<path d="M33.4644 55.0086C33.4644 55.2848 33.6882 55.5086 33.9644 55.5086C34.2405 55.5086 34.4644 55.2848 34.4644 55.0086L33.4644 55.0086ZM34.4644 55.0086L34.4644 54.003L33.4644 54.003L33.4644 55.0086L34.4644 55.0086ZM34.4644 51.9918L34.4644 49.9806L33.4644 49.9806L33.4644 51.9918L34.4644 51.9918ZM34.4644 47.9694L34.4644 45.9581L33.4644 45.9581L33.4644 47.9694L34.4644 47.9694ZM34.4644 43.9469L34.4644 41.9357L33.4644 41.9357L33.4644 43.9469L34.4644 43.9469ZM34.4644 39.9245L34.4644 38.9189L33.4644 38.9189L33.4644 39.9245L34.4644 39.9245Z" fill="#83735C"/>
<path d="M44.0248 30.2217H24.332C24.332 30.2217 26.3052 33.3328 27.9709 35.0052C30.0002 37.0425 33.9644 39.1363 33.9644 39.1363C33.9644 39.1363 38.0122 37.1536 39.9578 35.44C41.968 33.6696 44.0248 30.2217 44.0248 30.2217Z" fill="#83735C" stroke="#83735C" stroke-width="2"/>
</svg>
