<svg width="61" height="54" viewBox="0 0 61 54" fill="none" xmlns="http://www.w3.org/2000/svg">
<rect y="35" width="9" height="19" fill="#83735C"/>
<rect x="13" y="28" width="9" height="26" fill="#83735C"/>
<rect x="26" y="34" width="9" height="20" fill="#83735C"/>
<rect x="39" y="25" width="9" height="29" fill="#83735C"/>
<path d="M17.5 16.5L18.1459 15.7366L17.4839 15.1764L16.8356 15.7526L17.5 16.5ZM30.5 27.5L29.8541 28.2634L30.543 28.8464L31.1934 28.2206L30.5 27.5ZM57.9998 2.01923C58.0104 1.46704 57.5714 1.0108 57.0192 1.00018L48.0209 0.82714C47.4687 0.816521 47.0125 1.25555 47.0019 1.80773C46.9912 2.35991 47.4303 2.81615 47.9824 2.82677L55.981 2.98059L55.8271 10.9791C55.8165 11.5313 56.2555 11.9875 56.8077 11.9982C57.3599 12.0088 57.8162 11.5697 57.8268 11.0176L57.9998 2.01923ZM4.66436 29.2474L18.1644 17.2474L16.8356 15.7526L3.33564 27.7526L4.66436 29.2474ZM16.8541 17.2634L29.8541 28.2634L31.1459 26.7366L18.1459 15.7366L16.8541 17.2634ZM31.1934 28.2206L57.6934 2.72057L56.3066 1.27943L29.8066 26.7794L31.1934 28.2206Z" fill="black"/>
<rect x="52" y="13" width="9" height="41" fill="#83735C"/>
</svg>
