<svg width="72" height="68" viewBox="0 0 72 68" fill="none" xmlns="http://www.w3.org/2000/svg">
<path d="M70.5 34C70.5 51.9493 55.9493 66.5 38 66.5" stroke="black" stroke-width="2"/>
<path d="M5 34L0.656635 44.699L12.0939 43.111L5 34ZM37.5 65.5C23.1005 65.5 10.9553 55.8374 7.19951 42.6404L5.27589 43.1879C9.26982 57.2216 22.1833 67.5 37.5 67.5V65.5Z" fill="black"/>
<path d="M5 33.5C5 15.5507 19.5507 1 37.5 1" stroke="black" stroke-width="2"/>
<path d="M38 1C55.9493 1 70.5 15.5507 70.5 33.5" stroke="black" stroke-width="2"/>
<path d="M41.56 42.96C44.36 42.96 46.72 41.8533 48.64 39.64L52.76 43.48C51.4267 45.1067 49.7733 46.3467 47.8 47.2C45.8533 48.0533 43.6667 48.48 41.24 48.48C38.92 48.48 36.76 48.0667 34.76 47.24C32.7867 46.4133 31.1067 45.24 29.72 43.72C28.3333 42.2 27.3333 40.44 26.72 38.44H22.2V35.08H26.12C26.0933 34.84 26.08 34.48 26.08 34C26.08 33.52 26.0933 33.16 26.12 32.92H22.2V29.56H26.72C27.3333 27.56 28.3333 25.8 29.72 24.28C31.1067 22.76 32.7867 21.5867 34.76 20.76C36.76 19.9333 38.92 19.52 41.24 19.52C43.6667 19.52 45.8533 19.9467 47.8 20.8C49.7733 21.6533 51.4267 22.88 52.76 24.48L48.64 28.32C46.6933 26.1333 44.3333 25.04 41.56 25.04C39.8 25.04 38.2267 25.44 36.84 26.24C35.4533 27.04 34.3867 28.1467 33.64 29.56H43.76V32.92H32.64C32.6133 33.16 32.6 33.52 32.6 34C32.6 34.48 32.6133 34.84 32.64 35.08H43.76V38.44H33.64C34.3867 39.8533 35.4533 40.96 36.84 41.76C38.2267 42.56 39.8 42.96 41.56 42.96Z" fill="#83735C"/>
</svg>
