a<svg width="767" height="824" viewBox="0 0 767 824" fill="none" xmlns="http://www.w3.org/2000/svg">
<path d="M655.863 290.57C655.863 339.469 617.758 383.862 555.872 416.059C494.01 448.244 408.514 468.166 314.051 468.166C219.587 468.166 134.092 448.244 72.2301 416.059C10.3439 383.862 -27.7617 339.469 -27.7617 290.57C-27.7617 241.672 10.3439 197.279 72.2301 165.081C134.092 132.896 219.587 112.975 314.051 112.975C408.514 112.975 494.01 132.896 555.872 165.081C617.758 197.279 655.863 241.672 655.863 290.57Z" stroke="white"/>
<path d="M655.539 276.99C657.875 325.842 621.926 371.707 561.637 406.333C501.371 440.945 416.908 464.244 322.535 467.997C228.161 471.75 141.795 455.244 78.4545 425.548C15.089 395.84 -25.1013 353.003 -27.4373 304.151C-29.7733 255.298 6.17556 209.434 66.4648 174.808C126.73 140.196 211.193 116.896 305.567 113.143C399.94 109.39 486.306 125.896 549.647 155.593C613.012 185.301 653.203 228.137 655.539 276.99Z" stroke="white"/>
<path d="M654.882 266.966C658.942 315.724 624.632 362.621 565.597 399C506.586 435.364 422.99 461.133 328.798 467.656C234.606 474.18 147.701 460.219 83.3451 432.399C18.9633 404.567 -22.7193 362.934 -26.7796 314.175C-30.8399 265.416 3.4705 218.519 62.5053 182.14C121.517 145.776 205.113 120.008 299.305 113.484C393.497 106.961 480.401 120.921 544.757 148.742C609.139 176.573 650.822 218.207 654.882 266.966Z" stroke="white"/>
<path d="M649.26 277.347C653.32 326.106 619.01 373.002 559.975 409.381C500.964 445.745 417.368 471.514 323.176 478.037C228.984 484.561 142.079 470.6 77.723 442.78C13.3413 414.948 -28.3413 373.315 -32.4016 324.556C-36.4619 275.797 -2.15157 228.9 56.8832 192.522C115.895 156.157 199.491 130.389 293.683 123.865C387.875 117.342 474.779 131.302 539.135 159.123C603.517 186.954 645.2 228.588 649.26 277.347Z" stroke="white"/>
<path d="M643.638 287.728C647.698 336.487 613.387 383.383 554.353 419.762C495.341 456.127 411.745 481.895 317.553 488.418C223.361 494.942 136.457 480.981 72.1005 453.161C7.71872 425.33 -33.9639 383.696 -38.0242 334.937C-42.0845 286.178 -7.77413 239.281 51.2606 202.903C110.272 166.538 193.868 140.77 288.06 134.246C382.252 127.723 469.157 141.683 533.513 169.504C597.895 197.335 639.577 238.969 643.638 287.728Z" stroke="white"/>
<path d="M638.015 298.109C642.076 346.868 607.765 393.764 548.731 430.143C489.719 466.508 406.123 492.276 311.931 498.8C217.739 505.323 130.835 491.363 66.4784 463.542C2.09664 435.711 -39.586 394.077 -43.6463 345.318C-47.7066 296.559 -13.3962 249.663 45.6386 213.284C104.65 176.919 188.246 151.151 282.438 144.627C376.63 138.104 463.534 152.064 527.891 179.885C592.273 207.716 633.955 249.35 638.015 298.109Z" stroke="white"/>
<path d="M632.394 308.49C636.454 357.249 602.144 404.146 543.109 440.524C484.098 476.889 400.502 502.657 306.31 509.181C212.118 515.704 125.213 501.744 60.8568 473.923C-3.52494 446.092 -45.2075 404.458 -49.2678 355.699C-53.3282 306.94 -19.0178 260.044 40.017 223.665C99.0285 187.3 182.624 161.532 276.816 155.009C371.009 148.485 457.913 162.446 522.269 190.266C586.651 218.097 628.334 259.731 632.394 308.49Z" stroke="white"/>
<path d="M626.772 318.871C630.832 367.63 596.522 414.527 537.487 450.905C478.476 487.27 394.88 513.038 300.688 519.562C206.495 526.085 119.591 512.125 55.2348 484.304C-9.14701 456.473 -50.8296 414.839 -54.8899 366.08C-58.9502 317.322 -24.6399 270.425 34.3949 234.046C93.4064 197.682 177.002 171.913 271.194 165.39C365.386 158.866 452.291 172.827 516.647 200.647C581.029 228.479 622.712 270.112 626.772 318.871Z" stroke="white"/>
<path d="M621.15 329.252C625.21 378.011 590.9 424.908 531.865 461.287C472.853 497.651 389.257 523.42 295.065 529.943C200.873 536.466 113.969 522.506 49.6127 494.685C-14.7691 466.854 -56.4517 425.22 -60.512 376.461C-64.5723 327.703 -30.2619 280.806 28.7728 244.427C87.7843 208.063 171.38 182.294 265.572 175.771C359.764 169.247 446.669 183.208 511.025 211.028C575.407 238.86 617.089 280.493 621.15 329.252Z" stroke="white"/>
<path d="M615.528 339.633C619.588 388.392 585.278 435.289 526.243 471.667C467.232 508.032 383.636 533.8 289.444 540.324C195.252 546.847 108.347 532.887 43.9911 505.066C-20.3907 477.235 -62.0733 435.601 -66.1336 386.842C-70.1939 338.083 -35.8835 291.187 23.1513 254.808C82.1627 218.444 165.759 192.675 259.951 186.152C354.143 179.628 441.047 193.589 505.403 221.409C569.785 249.241 611.468 290.874 615.528 339.633Z" stroke="white"/>
<path d="M609.906 350.014C613.966 398.773 579.656 445.67 520.621 482.049C461.61 518.413 378.014 544.181 283.822 550.705C189.63 557.228 102.725 543.268 38.369 515.447C-26.0127 487.616 -67.6953 445.982 -71.7556 397.223C-75.8159 348.465 -41.5056 301.568 17.5292 265.189C76.5407 228.825 160.137 203.056 254.329 196.533C348.521 190.009 435.425 203.97 499.781 231.79C564.163 259.622 605.846 301.255 609.906 350.014Z" stroke="white"/>
<path d="M604.284 360.395C608.344 409.154 574.033 456.051 514.999 492.43C455.987 528.794 372.391 554.563 278.199 561.086C184.007 567.609 97.1028 553.649 32.7465 525.828C-31.6353 497.997 -73.3179 456.363 -77.3782 407.604C-81.4385 358.846 -47.1281 311.949 11.9066 275.57C70.9181 239.206 154.514 213.437 248.706 206.914C342.898 200.39 429.802 214.351 494.159 242.171C558.541 270.003 600.223 311.637 604.284 360.395Z" stroke="white"/>
<path d="M598.661 370.776C602.722 419.535 568.411 466.432 509.377 502.81C450.365 539.175 366.769 564.943 272.577 571.467C178.385 577.99 91.4808 564.03 27.1244 536.209C-37.2574 508.378 -78.94 466.744 -83.0003 417.985C-87.0606 369.227 -52.7502 322.33 6.28457 285.951C65.296 249.587 148.892 223.818 243.084 217.295C337.276 210.771 424.18 224.732 488.537 252.552C552.919 280.384 594.601 322.017 598.661 370.776Z" stroke="white"/>
<path d="M593.04 381.157C597.1 429.916 562.79 476.813 503.755 513.192C444.744 549.556 361.148 575.325 266.956 581.848C172.764 588.371 85.8592 574.411 21.5028 546.59C-42.8789 518.759 -84.5615 477.125 -88.6218 428.366C-92.6822 379.608 -58.3718 332.711 0.662985 296.332C59.6745 259.968 143.27 234.199 237.462 227.676C331.655 221.152 418.559 235.113 482.915 262.933C547.297 290.765 588.98 332.398 593.04 381.157Z" stroke="white"/>
<path d="M587.418 391.538C591.478 440.297 557.168 487.194 498.133 523.573C439.122 559.937 355.526 585.706 261.333 592.229C167.141 598.752 80.2371 584.792 15.8808 556.972C-48.501 529.14 -90.1836 487.506 -94.2439 438.748C-98.3042 389.989 -63.9939 343.092 -4.95909 306.713C54.0524 270.349 137.648 244.58 231.84 238.057C326.032 231.534 412.937 245.494 477.293 273.314C541.675 301.146 583.358 342.78 587.418 391.538Z" stroke="white"/>
<path d="M581.796 401.919C585.856 450.678 551.546 497.575 492.511 533.954C433.499 570.318 349.903 596.087 255.711 602.61C161.519 609.133 74.615 595.173 10.2587 567.353C-54.1231 539.521 -95.8057 497.887 -99.866 449.129C-103.926 400.37 -69.6159 353.473 -10.5812 317.094C48.4303 280.73 132.026 254.961 226.218 248.438C320.41 241.915 407.315 255.875 471.671 283.695C536.053 311.527 577.735 353.161 581.796 401.919Z" stroke="white"/>
<path d="M576.174 412.301C580.234 461.059 545.924 507.956 486.889 544.335C427.878 580.699 344.282 606.468 250.09 612.991C155.898 619.515 68.9935 605.554 4.6371 577.734C-59.7447 549.902 -101.427 508.269 -105.488 459.51C-109.548 410.751 -75.2375 363.854 -16.2027 327.475C42.8087 291.111 126.405 265.342 220.597 258.819C314.789 252.296 401.693 266.256 466.049 294.077C530.431 321.908 572.114 363.542 576.174 412.301Z" stroke="white"/>
<path d="M570.552 422.682C574.612 471.44 540.302 518.337 481.267 554.716C422.255 591.08 338.659 616.849 244.467 623.372C150.275 629.896 63.3709 615.935 -0.985457 588.115C-65.3672 560.283 -107.05 518.65 -111.11 469.891C-115.17 421.132 -80.8601 374.235 -21.8253 337.857C37.1862 301.492 120.782 275.724 214.974 269.2C309.166 262.677 396.071 276.637 460.427 304.458C524.809 332.289 566.491 373.923 570.552 422.682Z" stroke="white"/>
<path d="M564.93 433.063C568.99 481.822 534.679 528.718 475.645 565.097C416.633 601.462 333.037 627.23 238.845 633.753C144.653 640.277 57.7488 626.316 -6.60753 598.496C-70.9893 570.665 -112.672 529.031 -116.732 480.272C-120.793 431.513 -86.4821 384.616 -27.4474 348.238C31.5641 311.873 115.16 286.105 209.352 279.581C303.544 273.058 390.448 287.018 454.805 314.839C519.187 342.67 560.869 384.304 564.93 433.063Z" stroke="white"/>
<path d="M559.307 443.444C563.368 492.203 529.057 539.099 470.023 575.478C411.011 611.843 327.415 637.611 233.223 644.135C139.031 650.658 52.1268 636.698 -12.2296 608.877C-76.6114 581.046 -118.294 539.412 -122.354 490.653C-126.415 441.894 -92.1042 394.998 -33.0694 358.619C25.942 322.254 109.538 296.486 203.73 289.962C297.922 283.439 384.826 297.399 449.183 325.22C513.565 353.051 555.247 394.685 559.307 443.444Z" stroke="white"/>
<path d="M553.647 453.726C557.699 502.486 523.381 549.389 464.341 585.777C405.325 622.151 321.726 647.933 227.535 654.47C133.344 661.008 46.444 647.06 -17.9061 619.248C-82.2815 591.425 -123.956 549.796 -128.007 501.037C-132.059 452.277 -97.7412 405.374 -38.7014 368.986C20.3152 332.612 103.914 306.83 198.105 300.293C292.296 293.755 379.196 307.703 443.546 335.515C507.921 363.338 549.596 404.967 553.647 453.726Z" stroke="white"/>
<path d="M248.683 753.574C197.265 739.487 161.614 693.397 145.613 630.112C129.615 566.837 133.291 486.452 160.463 403.965C187.635 321.479 233.144 252.555 284.73 207.795C336.323 163.028 393.924 142.485 445.342 156.572C496.76 170.658 532.411 216.749 548.411 280.033C564.409 343.309 560.734 423.694 533.562 506.18C506.39 588.667 460.881 657.591 409.295 702.351C357.702 747.117 300.101 767.66 248.683 753.574Z" stroke="white"/>
<path d="M263.037 757.197C210.995 745.167 173.176 700.536 154.167 637.948C135.161 575.368 134.993 494.913 158.199 411.426C181.405 327.938 223.578 257.271 272.976 210.504C322.382 163.73 378.947 140.918 430.989 152.948C483.031 164.979 520.85 209.609 539.859 272.198C558.864 334.777 559.032 415.232 535.827 498.72C512.621 582.208 470.448 652.875 421.049 699.642C371.643 746.415 315.078 769.227 263.037 757.197Z" stroke="white"/>
<path d="M273.751 759.508C221.312 749.012 181.936 705.516 160.726 643.518C139.52 581.529 136.511 501.121 156.755 416.995C177 332.869 216.655 260.999 264.377 212.806C312.105 164.605 367.835 140.143 420.274 150.638C472.714 161.134 512.09 204.63 533.299 266.628C554.505 328.617 557.515 409.025 537.27 493.151C517.025 577.277 477.37 649.146 429.649 697.34C381.921 745.541 326.191 770.003 273.751 759.508Z" stroke="white"/>
<path d="M264.467 751.61C212.027 741.115 172.651 697.619 151.442 635.621C130.236 573.632 127.226 493.224 147.471 409.098C167.716 324.972 207.371 253.102 255.092 204.908C302.821 156.708 358.551 132.246 410.99 142.741C463.43 153.236 502.806 196.733 524.015 258.73C545.221 320.72 548.231 401.128 527.986 485.254C507.741 569.38 468.086 641.249 420.365 689.443C372.636 737.644 316.906 762.106 264.467 751.61Z" stroke="white"/>
<path d="M255.182 743.713C202.743 733.218 163.367 689.722 142.158 627.724C120.951 565.735 117.942 485.327 138.186 401.201C158.431 317.075 198.086 245.205 245.808 197.011C293.536 148.811 349.266 124.349 401.705 134.844C454.145 145.339 493.521 188.836 514.73 250.833C535.936 312.823 538.946 393.231 518.701 477.357C498.456 561.483 458.801 633.352 411.08 681.546C363.352 729.747 307.622 754.209 255.182 743.713Z" stroke="white"/>
<path d="M245.898 735.816C193.459 725.321 154.083 681.825 132.873 619.827C111.667 557.838 108.658 477.43 128.902 393.304C149.147 309.178 188.802 237.308 236.524 189.114C284.252 140.914 339.982 116.452 392.421 126.947C444.861 137.442 484.237 180.939 505.446 242.937C526.652 304.926 529.662 385.334 509.417 469.46C489.172 553.586 449.517 625.455 401.796 673.649C354.068 721.85 298.338 746.312 245.898 735.816Z" stroke="white"/>
<path d="M236.613 727.919C184.173 717.424 144.797 673.928 123.588 611.93C102.382 549.941 99.3723 469.533 119.617 385.407C139.862 301.281 179.517 229.411 227.238 181.217C274.967 133.017 330.697 108.555 383.136 119.05C435.576 129.545 474.952 173.042 496.161 235.04C517.367 297.029 520.377 377.437 500.132 461.563C479.887 545.689 440.232 617.558 392.511 665.752C344.782 713.953 289.052 738.415 236.613 727.919Z" stroke="white"/>
<path d="M227.329 720.022C174.89 709.527 135.514 666.031 114.305 604.033C93.0984 542.044 90.0887 461.636 110.333 377.51C130.578 293.383 170.233 221.514 217.955 173.32C265.683 125.12 321.413 100.658 373.852 111.153C426.292 121.648 465.668 165.144 486.877 227.142C508.083 289.131 511.093 369.54 490.848 453.666C470.603 537.792 430.948 609.661 383.227 657.855C335.499 706.056 279.769 730.517 227.329 720.022Z" stroke="white"/>
<path d="M218.045 712.125C165.605 701.63 126.229 658.134 105.02 596.136C83.8137 534.147 80.804 453.739 101.049 369.613C121.294 285.486 160.949 213.617 208.67 165.423C256.398 117.223 312.128 92.7608 364.568 103.256C417.007 113.751 456.383 157.248 477.592 219.245C498.799 281.234 501.808 361.643 481.564 445.769C461.319 529.895 421.664 601.764 373.942 649.958C326.214 698.159 270.484 722.621 218.045 712.125Z" stroke="white"/>
<path d="M208.76 704.229C156.32 693.733 116.944 650.237 95.7352 588.239C74.5291 526.25 71.5193 445.842 91.7641 361.716C112.009 277.59 151.664 205.72 199.385 157.527C247.114 109.326 302.844 84.8641 355.283 95.3593C407.722 105.855 447.099 149.351 468.308 211.349C489.514 273.338 492.524 353.746 472.279 437.872C452.034 521.998 412.379 593.867 364.658 642.061C316.929 690.262 261.199 714.724 208.76 704.229Z" stroke="white"/>
<path d="M199.476 696.331C147.037 685.836 107.661 642.34 86.4515 580.342C65.2454 518.353 62.2356 437.945 82.4804 353.819C102.725 269.693 142.38 197.823 190.102 149.629C237.83 101.429 293.56 76.9669 345.999 87.4621C398.439 97.9573 437.815 141.454 459.024 203.451C480.23 265.44 483.24 345.849 462.995 429.975C442.75 514.101 403.095 585.97 355.374 634.164C307.646 682.365 251.916 706.827 199.476 696.331Z" stroke="white"/>
<path d="M190.191 688.434C137.752 677.939 98.3756 634.443 77.1664 572.445C55.9602 510.456 52.9505 430.048 73.1952 345.922C93.44 261.796 133.095 189.926 180.816 141.732C228.545 93.5316 284.275 69.0699 336.714 79.5651C389.154 90.0603 428.53 133.557 449.739 195.554C470.945 257.544 473.955 337.952 453.71 422.078C433.465 506.204 393.81 578.073 346.089 626.267C298.361 674.468 242.631 698.93 190.191 688.434Z" stroke="white"/>
<path d="M180.906 680.537C128.467 670.042 89.0909 626.546 67.8817 564.548C46.6755 502.559 43.6658 422.151 63.9106 338.025C84.1554 253.899 123.81 182.029 171.532 133.835C219.26 85.6347 274.99 61.1729 327.43 71.6681C379.869 82.1634 419.245 125.66 440.454 187.657C461.66 249.647 464.67 330.055 444.425 414.181C424.181 498.307 384.526 570.176 336.804 618.37C289.076 666.571 233.346 691.033 180.906 680.537Z" stroke="white"/>
<path d="M171.623 672.641C119.183 662.145 79.8072 618.649 58.598 556.651C37.3918 494.662 34.3821 414.254 54.6269 330.128C74.8717 246.002 114.527 174.133 162.248 125.939C209.976 77.7379 265.706 53.2762 318.146 63.7714C370.585 74.2666 409.961 117.763 431.171 179.761C452.377 241.75 455.386 322.158 435.142 406.284C414.897 490.41 375.242 562.28 327.52 610.473C279.792 658.674 224.062 683.136 171.623 672.641Z" stroke="white"/>
<path d="M162.338 664.743C109.898 654.248 70.5221 610.752 49.3129 548.754C28.1067 486.765 25.097 406.357 45.3417 322.231C65.5865 238.105 105.242 166.235 152.963 118.041C200.691 69.8407 256.421 45.379 308.861 55.8742C361.3 66.3694 400.676 109.866 421.885 171.864C443.092 233.853 446.101 314.261 425.856 398.387C405.612 482.513 365.957 554.382 318.235 602.576C270.507 650.777 214.777 675.239 162.338 664.743Z" stroke="white"/>
<path d="M153.053 656.846C100.614 646.351 61.2379 602.855 40.0287 540.857C18.8225 478.868 15.8128 398.46 36.0576 314.334C56.3023 230.208 95.9573 158.338 143.679 110.144C191.407 61.9437 247.137 37.482 299.576 47.9772C352.016 58.4725 391.392 101.969 412.601 163.967C433.807 225.956 436.817 306.364 416.572 390.49C396.328 474.616 356.673 546.485 308.951 594.679C261.223 642.88 205.493 667.342 153.053 656.846Z" stroke="white"/>
<path d="M143.769 648.95C91.3292 638.454 51.9532 594.958 30.744 532.96C9.53785 470.971 6.52811 390.563 26.7729 306.437C47.0177 222.311 86.6727 150.441 134.394 102.247C182.122 54.0468 237.852 29.585 290.292 40.0803C342.731 50.5755 382.107 94.0717 403.317 156.07C424.523 218.059 427.532 298.467 407.288 382.593C387.043 466.719 347.388 538.588 299.666 586.782C251.938 634.983 196.208 659.445 143.769 648.95Z" stroke="white"/>
<path d="M134.485 641.053C82.0451 630.557 42.669 587.061 21.4598 525.063C0.253666 463.074 -2.75607 382.666 17.4887 298.54C37.7335 214.414 77.3885 142.544 125.11 94.3505C172.838 46.1498 228.568 21.6881 281.008 32.1833C333.447 42.6785 372.823 86.1747 394.032 148.173C415.239 210.162 418.248 290.57 398.003 374.696C377.759 458.822 338.104 530.691 290.382 578.885C242.654 627.086 186.924 651.548 134.485 641.053Z" stroke="white"/>
<path d="M125.2 633.156C72.7609 622.66 33.3849 579.164 12.1756 517.166C-9.03051 455.177 -12.0402 374.769 8.20452 290.643C28.4493 206.517 68.1043 134.647 115.826 86.4535C163.554 38.2528 219.284 13.7911 271.723 24.2863C324.163 34.7815 363.539 78.2778 384.748 140.276C405.954 202.265 408.964 282.673 388.719 366.799C368.475 450.925 328.82 522.794 281.098 570.988C233.37 619.189 177.64 643.651 125.2 633.156Z" stroke="white"/>
<path d="M115.916 625.259C63.4762 614.763 24.1002 571.267 2.89098 509.269C-18.3152 447.28 -21.3249 366.872 -1.08014 282.746C19.1646 198.62 58.8196 126.75 106.541 78.5566C154.269 30.3558 209.999 5.89411 262.439 16.3893C314.878 26.8846 354.254 70.3808 375.463 132.379C396.67 194.368 399.679 274.776 379.435 358.902C359.19 443.028 319.535 514.897 271.813 563.091C224.085 611.292 168.355 635.754 115.916 625.259Z" stroke="white"/>
<path d="M106.632 617.362C54.192 606.866 14.816 563.37 -6.3932 501.372C-27.5994 439.383 -30.6091 358.975 -10.3643 274.849C9.88045 190.723 49.5354 118.854 97.2569 70.6596C144.985 22.4589 200.715 -2.00286 253.155 8.49236C305.594 18.9876 344.97 62.4838 366.179 124.482C387.385 186.471 390.395 266.879 370.15 351.005C349.906 435.131 310.251 507 262.529 555.194C214.801 603.395 159.071 627.857 106.632 617.362Z" stroke="white"/>
<path d="M13.8412 575.256C4.0508 561.372 2.65212 543.426 8.61859 522.789C14.5848 502.152 27.9015 478.882 47.4416 454.427C86.5193 405.52 150.419 351.957 229.887 305.351C309.354 258.744 389.303 227.94 454.31 215.802C486.816 209.733 515.557 208.336 538.622 211.946C561.688 215.556 579.014 224.162 588.804 238.045C598.594 251.928 599.993 269.874 594.027 290.512C588.06 311.148 574.744 334.418 555.204 358.873C516.126 407.78 452.226 461.343 372.759 507.95C293.292 554.556 213.342 585.36 148.335 597.498C115.829 603.568 87.0879 604.965 64.0229 601.354C40.9568 597.744 23.6316 589.139 13.8412 575.256Z" stroke="white"/>
<path d="M19.5825 582.851C8.82424 569.553 6.3415 551.957 11.1731 531.447C16.0045 510.939 28.1391 487.575 46.5188 462.821C83.2758 413.315 144.946 358.333 222.826 309.626C300.706 260.92 380.012 227.736 445.26 213.447C477.887 206.302 506.97 203.888 530.59 206.603C554.211 209.318 572.303 217.152 583.061 230.45C593.819 243.748 596.302 261.344 591.47 281.853C586.639 302.362 574.504 325.725 556.125 350.48C519.368 399.985 457.697 454.968 379.818 503.674C301.938 552.38 222.632 585.565 157.383 599.854C124.757 606.999 95.6733 609.413 72.0534 606.698C48.4325 603.983 30.3408 596.148 19.5825 582.851Z" stroke="white"/>
<path d="M24.1722 588.251C12.7109 575.402 9.42975 558.085 13.4164 537.696C17.4029 517.307 28.6485 493.903 46.1477 468.957C81.1439 419.069 141.09 363.105 217.701 312.906C294.312 262.707 373.045 227.803 438.393 211.941C471.069 204.01 500.369 200.846 524.371 202.896C548.373 204.946 567.01 212.201 578.471 225.05C589.932 237.899 593.214 255.216 589.227 275.605C585.24 295.993 573.995 319.398 556.496 344.343C521.499 394.231 461.553 450.196 384.942 500.395C308.331 550.594 229.598 585.498 164.25 601.36C131.575 609.291 102.274 612.454 78.2726 610.405C54.2704 608.355 35.6335 601.1 24.1722 588.251Z" stroke="white"/>
<path d="M24.7205 579.549C13.2592 566.7 9.97809 549.383 13.9647 528.994C17.9512 508.605 29.1969 485.201 46.6961 460.255C81.6923 410.368 141.639 354.403 218.25 304.204C294.861 254.005 373.594 219.101 438.941 203.239C471.617 195.308 500.918 192.144 524.919 194.194C548.921 196.244 567.558 203.499 579.019 216.348C590.481 229.197 593.762 246.514 589.775 266.903C585.789 287.291 574.543 310.696 557.044 335.641C522.048 385.529 462.101 441.494 385.49 491.693C308.879 541.892 230.146 576.796 164.799 592.658C132.123 600.589 102.822 603.752 78.8209 601.703C54.8188 599.653 36.1818 592.398 24.7205 579.549Z" stroke="white"/>
<path d="M25.2689 570.847C13.8076 557.998 10.5264 540.681 14.5131 520.292C18.4995 499.904 29.7452 476.499 47.2444 451.554C82.2406 401.666 142.187 345.701 218.798 295.502C295.409 245.303 374.142 210.399 439.489 194.537C472.165 186.606 501.466 183.443 525.467 185.492C549.47 187.542 568.106 194.797 579.568 207.646C591.029 220.495 594.31 237.812 590.324 258.201C586.337 278.59 575.091 301.994 557.592 326.94C522.596 376.828 462.65 432.792 386.039 482.991C309.428 533.19 230.695 568.094 165.347 583.956C132.671 591.887 103.371 595.051 79.3693 593.001C55.3671 590.951 36.7302 583.696 25.2689 570.847Z" stroke="white"/>
<path d="M25.8167 562.145C14.3554 549.296 11.0743 531.98 15.0609 511.59C19.0474 491.202 30.2931 467.797 47.7922 442.852C82.7885 392.964 142.735 336.999 219.346 286.8C295.957 236.601 374.69 201.697 440.037 185.836C472.713 177.904 502.014 174.741 526.015 176.791C550.017 178.84 568.654 186.095 580.116 198.944C591.577 211.793 594.858 229.11 590.871 249.499C586.885 269.888 575.639 293.292 558.14 318.238C523.144 368.126 463.197 424.091 386.586 474.29C309.975 524.488 231.242 559.392 165.895 575.254C133.219 583.185 103.918 586.349 79.9171 584.299C55.915 582.249 37.278 574.994 25.8167 562.145Z" stroke="white"/>
<path d="M26.3646 553.444C14.9033 540.595 11.6221 523.278 15.6088 502.889C19.5952 482.5 30.8409 459.096 48.3401 434.15C83.3363 384.262 143.283 328.297 219.894 278.099C296.505 227.9 375.238 192.996 440.585 177.134C473.261 169.203 502.562 166.039 526.563 168.089C550.565 170.139 569.202 177.394 580.663 190.243C592.125 203.092 595.406 220.408 591.419 240.798C587.433 261.186 576.187 284.591 558.688 309.536C523.692 359.424 463.745 415.389 387.134 465.588C310.523 515.787 231.79 550.691 166.443 566.552C133.767 574.484 104.466 577.647 80.465 575.597C56.4628 573.548 37.8259 566.293 26.3646 553.444Z" stroke="white"/>
<path d="M26.9129 544.742C15.4516 531.893 12.1705 514.576 16.1571 494.187C20.1436 473.798 31.3893 450.394 48.8884 425.448C83.8847 375.56 143.831 319.596 220.442 269.397C297.053 219.198 375.786 184.294 441.133 168.432C473.809 160.501 503.11 157.337 527.111 159.387C551.114 161.437 569.75 168.692 581.212 181.541C592.673 194.39 595.954 211.707 591.968 232.096C587.981 252.484 576.735 275.889 559.236 300.834C524.24 350.722 464.294 406.687 387.683 456.886C311.072 507.085 232.339 541.989 166.991 557.851C134.315 565.782 105.015 568.945 81.0133 566.896C57.0111 564.846 38.3742 557.591 26.9129 544.742Z" stroke="white"/>
<path d="M27.4593 536.04C15.998 523.191 12.7169 505.874 16.7035 485.485C20.69 465.097 31.9357 441.692 49.4348 416.747C84.431 366.859 144.378 310.894 220.989 260.695C297.6 210.496 376.332 175.592 441.68 159.73C474.356 151.799 503.656 148.636 527.658 150.685C551.66 152.735 570.297 159.99 581.758 172.839C593.219 185.688 596.501 203.005 592.514 223.394C588.527 243.783 577.282 267.187 559.783 292.133C524.786 342.02 464.84 397.985 388.229 448.184C311.618 498.383 232.885 533.287 167.538 549.149C134.862 557.08 105.561 560.244 81.5597 558.194C57.5575 556.144 38.9206 548.889 27.4593 536.04Z" stroke="white"/>
<path d="M28.0076 527.339C16.5463 514.49 13.2652 497.173 17.2518 476.784C21.2383 456.395 32.484 432.991 49.9832 408.045C84.9794 358.158 144.926 302.193 221.537 251.994C298.148 201.795 376.881 166.891 442.228 151.029C474.904 143.098 504.205 139.934 528.206 141.984C552.208 144.034 570.845 151.289 582.307 164.138C593.768 176.987 597.049 194.304 593.062 214.693C589.076 235.081 577.83 258.486 560.331 283.431C525.335 333.319 465.388 389.284 388.777 439.483C312.166 489.682 233.433 524.586 168.086 540.448C135.41 548.379 106.109 551.542 82.108 549.493C58.1059 547.443 39.4689 540.188 28.0076 527.339Z" stroke="white"/>
<path d="M28.5555 518.637C17.0942 505.788 13.813 488.471 17.7997 468.082C21.7862 447.693 33.0318 424.289 50.531 399.343C85.5272 349.455 145.474 293.491 222.085 243.292C298.696 193.093 377.429 158.189 442.776 142.327C475.452 134.396 504.753 131.232 528.754 133.282C552.756 135.332 571.393 142.587 582.854 155.436C594.316 168.285 597.597 185.602 593.61 205.991C589.624 226.379 578.378 249.784 560.879 274.729C525.883 324.617 465.936 380.582 389.325 430.781C312.714 480.98 233.981 515.884 168.634 531.746C135.958 539.677 106.657 542.84 82.6559 540.791C58.6537 538.741 40.0168 531.486 28.5555 518.637Z" stroke="white"/>
<path d="M29.1029 509.935C17.6416 497.086 14.3604 479.769 18.347 459.38C22.3335 438.991 33.5792 415.587 51.0784 390.641C86.0746 340.754 146.021 284.789 222.632 234.59C299.243 184.391 377.976 149.487 443.323 133.625C475.999 125.694 505.3 122.53 529.301 124.58C553.303 126.63 571.94 133.885 583.402 146.734C594.863 159.583 598.144 176.9 594.158 197.289C590.171 217.677 578.925 241.082 561.426 266.027C526.43 315.915 466.483 371.88 389.872 422.079C313.262 472.278 234.529 507.182 169.181 523.044C136.505 530.975 107.205 534.138 83.2032 532.089C59.2011 530.039 40.5642 522.784 29.1029 509.935Z" stroke="white"/>
<path d="M29.6517 501.234C18.1904 488.385 14.9092 471.068 18.8959 450.679C22.8823 430.29 34.128 406.885 51.6272 381.94C86.6234 332.052 146.57 276.087 223.181 225.888C299.792 175.689 378.525 140.785 443.872 124.924C476.548 116.992 505.849 113.829 529.85 115.879C553.852 117.928 572.489 125.183 583.951 138.032C595.412 150.881 598.693 168.198 594.706 188.587C590.72 208.976 579.474 232.38 561.975 257.326C526.979 307.214 467.032 363.179 390.421 413.378C313.81 463.577 235.077 498.48 169.73 514.342C137.054 522.274 107.753 525.437 83.7521 523.387C59.7499 521.338 41.113 514.083 29.6517 501.234Z" stroke="white"/>
<path d="M30.2 492.531C18.7387 479.682 15.4576 462.366 19.4442 441.976C23.4307 421.588 34.6764 398.183 52.1755 373.238C87.1718 323.35 147.118 267.385 223.729 217.186C300.34 166.987 379.073 132.083 444.421 116.222C477.096 108.29 506.397 105.127 530.399 107.177C554.401 109.226 573.038 116.481 584.499 129.33C595.96 142.179 599.241 159.496 595.255 179.885C591.268 200.274 580.023 223.678 562.523 248.624C527.527 298.512 467.581 354.477 390.97 404.675C314.359 454.874 235.626 489.778 170.278 505.64C137.603 513.571 108.302 516.735 84.3004 514.685C60.2983 512.635 41.6613 505.38 30.2 492.531Z" stroke="white"/>
<path d="M30.7469 483.829C19.2856 470.98 16.0045 453.664 19.9911 433.274C23.9776 412.886 35.2233 389.481 52.7224 364.536C87.7186 314.648 147.665 258.683 224.276 208.484C300.887 158.285 379.62 123.381 444.967 107.52C477.643 99.5883 506.944 96.4249 530.945 98.4746C554.948 100.524 573.584 107.779 585.046 120.628C596.507 133.477 599.788 150.794 595.802 171.183C591.815 191.572 580.569 214.976 563.07 239.922C528.074 289.81 468.128 345.775 391.517 395.974C314.906 446.172 236.173 481.076 170.825 496.938C138.149 504.87 108.849 508.033 84.8473 505.983C60.8451 503.934 42.2082 496.678 30.7469 483.829Z" stroke="white"/>
<path d="M31.2938 475.128C19.8325 462.279 16.5513 444.962 20.538 424.573C24.5244 404.184 35.7701 380.78 53.2693 355.834C88.2655 305.946 148.212 249.982 224.823 199.783C301.434 149.584 380.167 114.68 445.514 98.818C478.19 90.8866 507.491 87.7233 531.492 89.7729C555.494 91.8227 574.131 99.0777 585.593 111.927C597.054 124.776 600.335 142.093 596.348 162.482C592.362 182.87 581.116 206.275 563.617 231.22C528.621 281.108 468.674 337.073 392.063 387.272C315.452 437.471 236.72 472.375 171.372 488.237C138.696 496.168 109.395 499.331 85.3942 497.282C61.392 495.232 42.7551 487.977 31.2938 475.128Z" stroke="white"/>
<path d="M31.8426 466.426C20.3813 453.577 17.1002 436.261 21.0868 415.871C25.0733 395.483 36.319 372.078 53.8181 347.133C88.8143 297.245 148.761 241.28 225.372 191.081C301.983 140.882 380.716 105.978 446.063 90.1166C478.739 82.1852 508.04 79.0219 532.041 81.0715C556.043 83.1212 574.68 90.3763 586.141 103.225C597.603 116.074 600.884 133.391 596.897 153.78C592.911 174.169 581.665 197.573 564.166 222.519C529.17 272.407 469.223 328.372 392.612 378.571C316.001 428.769 237.268 463.673 171.921 479.535C139.245 487.466 109.944 490.63 85.943 488.58C61.9408 486.53 43.3039 479.275 31.8426 466.426Z" stroke="white"/>
<path d="M32.39 457.725C20.9287 444.876 17.6475 427.559 21.6342 407.17C25.6206 386.781 36.8663 363.377 54.3655 338.431C89.3617 288.543 149.308 232.578 225.919 182.38C302.53 132.181 381.263 97.2767 446.611 81.4149C479.286 73.4835 508.587 70.3202 532.588 72.3699C556.591 74.4196 575.228 81.6746 586.689 94.5236C598.15 107.373 601.431 124.689 597.445 145.079C593.458 165.467 582.212 188.872 564.713 213.817C529.717 263.705 469.771 319.67 393.16 369.869C316.549 420.068 237.816 454.972 172.468 470.833C139.793 478.765 110.492 481.928 86.4904 479.879C62.4882 477.829 43.8513 470.574 32.39 457.725Z" stroke="white"/>
<path d="M32.9378 449.022C21.4765 436.173 18.1954 418.857 22.182 398.467C26.1685 378.079 37.4142 354.674 54.9133 329.729C89.9096 279.841 149.856 223.876 226.467 173.677C303.078 123.478 381.811 88.5743 447.158 72.7125C479.834 64.7811 509.135 61.6178 533.136 63.6675C557.138 65.7172 575.775 72.9722 587.237 85.8212C598.698 98.6702 601.979 115.987 597.993 136.376C594.006 156.765 582.76 180.169 565.261 205.115C530.265 255.003 470.318 310.968 393.707 361.166C317.096 411.365 238.364 446.269 173.016 462.131C140.34 470.062 111.04 473.226 87.0382 471.176C63.036 469.126 44.3991 461.871 32.9378 449.022Z" stroke="white"/>
<path d="M33.4862 440.321C22.0249 427.472 18.7437 410.155 22.7303 389.766C26.7168 369.377 37.9625 345.973 55.4617 321.027C90.4579 271.14 150.404 215.175 227.015 164.976C303.626 114.777 382.359 79.8728 447.707 64.0111C480.382 56.0797 509.683 52.9164 533.685 54.9661C557.687 57.0158 576.324 64.2708 587.785 77.1198C599.246 89.9688 602.527 107.286 598.541 127.675C594.554 148.063 583.309 171.468 565.81 196.413C530.813 246.301 470.867 302.266 394.256 352.465C317.645 402.664 238.912 437.568 173.564 453.43C140.889 461.361 111.588 464.524 87.5865 462.475C63.5844 460.425 44.9475 453.17 33.4862 440.321Z" stroke="white"/>
<path d="M34.034 431.619C22.5727 418.77 19.2916 401.453 23.2782 381.064C27.2647 360.676 38.5104 337.271 56.0095 312.326C91.0057 262.438 150.952 206.473 227.563 156.274C304.174 106.075 382.907 71.1712 448.255 55.3094C480.93 47.3781 510.231 44.2147 534.232 46.2644C558.235 48.3141 576.872 55.5692 588.333 68.4181C599.794 81.2671 603.075 98.584 599.089 118.973C595.102 139.362 583.857 162.766 566.357 187.712C531.361 237.6 471.415 293.564 394.804 343.763C318.193 393.962 239.46 428.866 174.112 444.728C141.437 452.659 112.136 455.823 88.1344 453.773C64.1322 451.723 45.4953 444.468 34.034 431.619Z" stroke="white"/>
<g filter="url(#filter0_d_90_2090)">
<circle cx="266.87" cy="344.87" r="148.87" fill="#18191D"/>
</g>
<path d="M208.882 347.922L266.423 298.12C266.679 297.899 267.059 297.9 267.314 298.123L283.618 312.43C284.057 312.814 284.744 312.503 284.744 311.92V298.412C284.744 298.037 285.047 297.733 285.422 297.733H299.62C299.995 297.733 300.298 298.037 300.298 298.412V325.931C300.298 326.126 300.382 326.311 300.528 326.44L324.858 347.922" stroke="#83735C" stroke-width="3.39111" stroke-linecap="round"/>
<g filter="url(#filter1_d_90_2090)">
<path d="M298.579 371.627V362.837H309.855C313.428 363.506 315.987 365.949 316.04 369.083C316.094 372.273 313.681 375.152 309.855 375.508H298.579V390.277" stroke="#83735C" stroke-width="3.56365"/>
</g>
<g filter="url(#filter2_d_90_2090)">
<path d="M219.733 362.837H229.509C235.824 364.474 238.607 368.404 238.888 374.13C239.188 380.224 236.374 384.809 229.509 386.624H221.451V367.105" stroke="#83735C" stroke-width="3.56365"/>
</g>
<line x1="255.509" y1="360.125" x2="263.795" y2="380.794" stroke="#83735C" stroke-width="3.56365"/>
<path d="M253.32 359.451H257.151L253.988 360.966L253.32 359.451Z" fill="#83735C" stroke="#83735C" stroke-width="0.0890912"/>
<g filter="url(#filter3_d_90_2090)">
<path d="M269.179 389.965L265.927 388.674L265.348 389.965L269.179 389.965Z" fill="#83735C"/>
<path d="M269.179 389.965L265.927 388.674L265.348 389.965L269.179 389.965Z" stroke="#83735C" stroke-width="0.0890912"/>
</g>
<g filter="url(#filter4_d_90_2090)">
<path d="M263.433 384.442L265.348 380.21L262.185 381.457L263.433 384.442Z" fill="#83735C"/>
<path d="M263.433 384.442L265.348 380.21L262.185 381.457L263.433 384.442Z" stroke="#83735C" stroke-width="0.0890912"/>
</g>
<g filter="url(#filter5_d_90_2090)">
<path d="M281.398 359.806L277.553 359.832L280.738 361.325L281.398 359.806Z" fill="#83735C"/>
<path d="M281.398 359.806L277.553 359.832L280.738 361.325L281.398 359.806Z" stroke="#83735C" stroke-width="0.0890912"/>
</g>
<path d="M267.531 389.297L279.195 360.484" stroke="#83735C" stroke-width="3.56365"/>
<defs>
<filter id="filter0_d_90_2090" x="115.287" y="196" width="303.165" height="303.165" filterUnits="userSpaceOnUse" color-interpolation-filters="sRGB">
<feFlood flood-opacity="0" result="BackgroundImageFix"/>
<feColorMatrix in="SourceAlpha" type="matrix" values="0 0 0 0 0 0 0 0 0 0 0 0 0 0 0 0 0 0 127 0" result="hardAlpha"/>
<feOffset dy="2.71289"/>
<feGaussianBlur stdDeviation="1.35644"/>
<feComposite in2="hardAlpha" operator="out"/>
<feColorMatrix type="matrix" values="0 0 0 0 0 0 0 0 0 0 0 0 0 0 0 0 0 0 0.25 0"/>
<feBlend mode="normal" in2="BackgroundImageFix" result="effect1_dropShadow_90_2090"/>
<feBlend mode="normal" in="SourceGraphic" in2="effect1_dropShadow_90_2090" result="shape"/>
</filter>
<filter id="filter1_d_90_2090" x="296.441" y="361.055" width="21.7381" height="29.9347" filterUnits="userSpaceOnUse" color-interpolation-filters="sRGB">
<feFlood flood-opacity="0" result="BackgroundImageFix"/>
<feColorMatrix in="SourceAlpha" type="matrix" values="0 0 0 0 0 0 0 0 0 0 0 0 0 0 0 0 0 0 127 0" result="hardAlpha"/>
<feOffset dy="0.356365"/>
<feGaussianBlur stdDeviation="0.178182"/>
<feComposite in2="hardAlpha" operator="out"/>
<feColorMatrix type="matrix" values="0 0 0 0 0 0 0 0 0 0 0 0 0 0 0 0 0 0 0.25 0"/>
<feBlend mode="normal" in2="BackgroundImageFix" result="effect1_dropShadow_90_2090"/>
<feBlend mode="normal" in="SourceGraphic" in2="effect1_dropShadow_90_2090" result="shape"/>
</filter>
<filter id="filter2_d_90_2090" x="219.313" y="361.055" width="21.7352" height="28.0636" filterUnits="userSpaceOnUse" color-interpolation-filters="sRGB">
<feFlood flood-opacity="0" result="BackgroundImageFix"/>
<feColorMatrix in="SourceAlpha" type="matrix" values="0 0 0 0 0 0 0 0 0 0 0 0 0 0 0 0 0 0 127 0" result="hardAlpha"/>
<feOffset dy="0.356365"/>
<feGaussianBlur stdDeviation="0.178182"/>
<feComposite in2="hardAlpha" operator="out"/>
<feColorMatrix type="matrix" values="0 0 0 0 0 0 0 0 0 0 0 0 0 0 0 0 0 0 0.25 0"/>
<feBlend mode="normal" in2="BackgroundImageFix" result="effect1_dropShadow_90_2090"/>
<feBlend mode="normal" in="SourceGraphic" in2="effect1_dropShadow_90_2090" result="shape"/>
</filter>
<filter id="filter3_d_90_2090" x="264.922" y="388.616" width="4.62923" height="2.10604" filterUnits="userSpaceOnUse" color-interpolation-filters="sRGB">
<feFlood flood-opacity="0" result="BackgroundImageFix"/>
<feColorMatrix in="SourceAlpha" type="matrix" values="0 0 0 0 0 0 0 0 0 0 0 0 0 0 0 0 0 0 127 0" result="hardAlpha"/>
<feOffset dy="0.356365"/>
<feGaussianBlur stdDeviation="0.178182"/>
<feComposite in2="hardAlpha" operator="out"/>
<feColorMatrix type="matrix" values="0 0 0 0 0 0 0 0 0 0 0 0 0 0 0 0 0 0 0.25 0"/>
<feBlend mode="normal" in2="BackgroundImageFix" result="effect1_dropShadow_90_2090"/>
<feBlend mode="normal" in="SourceGraphic" in2="effect1_dropShadow_90_2090" result="shape"/>
</filter>
<filter id="filter4_d_90_2090" x="261.771" y="380.128" width="4.01986" height="5.13778" filterUnits="userSpaceOnUse" color-interpolation-filters="sRGB">
<feFlood flood-opacity="0" result="BackgroundImageFix"/>
<feColorMatrix in="SourceAlpha" type="matrix" values="0 0 0 0 0 0 0 0 0 0 0 0 0 0 0 0 0 0 127 0" result="hardAlpha"/>
<feOffset dy="0.356365"/>
<feGaussianBlur stdDeviation="0.178182"/>
<feComposite in2="hardAlpha" operator="out"/>
<feColorMatrix type="matrix" values="0 0 0 0 0 0 0 0 0 0 0 0 0 0 0 0 0 0 0.25 0"/>
<feBlend mode="normal" in2="BackgroundImageFix" result="effect1_dropShadow_90_2090"/>
<feBlend mode="normal" in="SourceGraphic" in2="effect1_dropShadow_90_2090" result="shape"/>
</filter>
<filter id="filter5_d_90_2090" x="277.178" y="359.761" width="4.64486" height="2.33651" filterUnits="userSpaceOnUse" color-interpolation-filters="sRGB">
<feFlood flood-opacity="0" result="BackgroundImageFix"/>
<feColorMatrix in="SourceAlpha" type="matrix" values="0 0 0 0 0 0 0 0 0 0 0 0 0 0 0 0 0 0 127 0" result="hardAlpha"/>
<feOffset dy="0.356365"/>
<feGaussianBlur stdDeviation="0.178182"/>
<feComposite in2="hardAlpha" operator="out"/>
<feColorMatrix type="matrix" values="0 0 0 0 0 0 0 0 0 0 0 0 0 0 0 0 0 0 0.25 0"/>
<feBlend mode="normal" in2="BackgroundImageFix" result="effect1_dropShadow_90_2090"/>
<feBlend mode="normal" in="SourceGraphic" in2="effect1_dropShadow_90_2090" result="shape"/>
</filter>
</defs>
</svg>